<svg xmlns="http://www.w3.org/2000/svg" version="1.1" xmlns:xlink="http://www.w3.org/1999/xlink" viewBox="0 0 12.473729810484256 5.490822442423422"><g transform="matrix(0.7857649970237106,0,0,0.7857649970237106,4.534727120718294,1.227163080070769)"><g transform="matrix(1,0,0,1,0,0)" clip-path="url(#SvgjsClipPath62728)"><g clip-path="url(#ae0745917-11b5-4933-b661-a4c78605805bde7b6ccf-3bf8-4900-a4b1-d03cf5810583)"><path d=" M -0.45747439123874845 2.5481432916459816 C -0.46742356802509866 2.507522641022268 -0.4799961161349011 2.4675898334544666 -0.4951129151849871 2.42859617035007 C -0.5034872465863724 2.428961026652771 -0.5118531475927743 2.429498834574611 -0.5202052644824868 2.430209249947768 C -0.6108961840862737 2.437736954737015 -0.706067880350334 2.467310080694774 -0.8177288347241758 2.5045901425081913 C -0.9238336260392863 2.5398986625910913 -1.0643507821052443 2.568396402150386 -1.1840771344675654 2.568396402150386 C -1.2148569800210551 2.568360059291032 -1.2455910751308026 2.5660235491364887 -1.2760226715362344 2.5614063905603706 C -1.290361156849087 2.591696440783772 -1.3201135138732565 2.619477256077424 -1.3896551676405928 2.669661954672409 C -1.473356075654371 2.7300628240528013 -1.6334094179590908 2.8469214793525515 -1.7122710871797813 2.9046338827367846 C -1.8041244955136042 2.972875278816823 -1.893842764969279 3.043944580870652 -1.9812969178621855 3.117739620699063 C -1.9997598380460664 3.13330127408181 -2.019550958683981 3.147215031621192 -2.0404431697777 3.1593212281063323 C -2.037037779515898 3.13422887880884 -2.030764692191525 3.1005334383236365 -2.0218031388709923 3.0863741840771945 C -2.0085400399566034 3.0655833803735577 -1.9886453915850195 3.043000266005815 -1.9556668753654582 3.005540973125987 C -1.9354137648610537 2.982599396625422 -1.9103214155635613 2.9539224259997168 -1.8785975168088742 2.9166423641862993 C -1.7993773854553625 2.8234422096527556 -1.6785756466945774 2.639730366581829 -1.6212217054431663 2.5053070667738337 C -1.5653016127230404 2.37410992616123 -1.5396715702263155 2.2932767152100224 -1.5163715315929298 2.2054534926687985 C -1.496656114287757 2.131610293307607 -1.4475468020912363 2.09988639455292 -1.4337460099776154 2.0982733149552244 C -1.416539827602192 2.1246202817175908 -1.3774674551246684 2.1432603126242995 -1.339470469045608 2.161183419265366 C -1.3165288925450436 2.1719372832500055 -1.2928703917788367 2.183228840433877 -1.2760226715362344 2.195416552949802 C -1.2331864466640865 2.2262442963724354 -1.2215364273473939 2.299729033600806 -1.2251210486756068 2.3581583612506813 C -1.228526438937409 2.4162292267677348 -1.254873405699776 2.499930134781514 -1.267598811414933 2.5384648140598056 C -1.2595334134264533 2.53971943152468 -1.2514680154379736 2.5406155868567337 -1.2430441553166722 2.5415117421887867 C -1.1168654845635673 2.5540579168375332 -0.9478505889383149 2.522513249149257 -0.8252565395134233 2.4816485660076264 C -0.7150294336708671 2.4449061973934407 -0.6203954306060386 2.4153330714356818 -0.5291668178030124 2.4067299802479702 C -0.5207429576817115 2.406013055982328 -0.5124983286268212 2.4052961317166854 -0.5040744685055198 2.4049376695838633 L -0.5257614275412097 2.349913732195791 C -0.5449391516471507 2.301879806397734 -0.5630414893546272 2.2567135776622473 -0.5770215125346585 2.2117265799931722 C -0.596199236640599 2.149533399948673 -0.6073115627580603 2.0778409733844088 -0.6171692714106469 2.0143931758750346 C -0.6243385140670732 1.9677930986082635 -0.6309700635242672 1.9238814873376515 -0.6402900789776216 1.8880352740555197 C -0.6743439815956469 1.754687360645988 -0.742451786831698 1.6052086512594974 -0.8318880889706173 1.4670214990568782 C -0.8526788926742541 1.4347599071029595 -0.8772335487725149 1.388518291969009 -0.9055520572653988 1.3347489720458112 C -0.9914037380761056 1.1725448569441637 -1.108800086575088 0.950298334594945 -1.2880311529857482 0.789348836958172 C -1.3138404265488832 0.7662280293911968 -1.3392912379791966 0.7375510587654912 -1.3638458940774574 0.7099494745382496 C -1.3950320996329122 0.6749994165881709 -1.4244259945242606 0.6420209003686095 -1.4504144991538064 0.6246354869267752 C -1.4742522309864239 0.608863153082637 -1.5737254728443406 0.5231907033383412 -1.6613694643191534 0.44791365544586403 C -1.738797285008559 0.3812396987410982 -1.805650472779735 0.32388575748968707 -1.823035886221569 0.3116980449737622 C -1.8353204849210294 0.30288163702719834 -1.8456864408560414 0.2916620141328321 -1.8535051675113814 0.2787195287542008 C -1.8646174936288424 0.26276796384365186 -1.8782390546760523 0.2430525465384793 -1.9122929572940779 0.21849789044021867 C -1.9624776558890626 0.182651677158087 -2.0456408707036093 0.09697922741379086 -2.083279394649848 0.0514545365454835 C -2.1214556117953185 0.005392152477943862 -2.1976288150198493 -0.06271565275810755 -2.2306073312394106 -0.06450796342221374 C -2.236545826721228 -0.06517241554559439 -2.2424684796723646 -0.06313239064020229 -2.24673812721637 -0.058951800363483194 C -2.260538919329991 -0.045688701449094565 -2.2496058242789405 -0.02561482201110043 -2.239031191360712 -0.005899404705928153 C -2.232399641903517 0.0061090767435865445 -2.2243342439150373 0.021343717388492306 -2.225230399247091 0.02940911537697173 C -2.2282773273760723 0.05736916173703488 -2.1976288150198493 0.08712151876120422 -2.1633956813354134 0.11759080005101677 L -2.160169522140021 0.12027926604717709 C -2.1393787184363844 0.13891929695388533 -2.120559456463265 0.16544549478266363 -2.1198425321976226 0.1740485859703753 C -2.127120641534296 0.18187728294312294 -2.130707553728471 0.19244236976960166 -2.129700240850209 0.20308401872890197 C -2.129162547650977 0.214375575912774 -2.1234271535258356 0.23660022814769566 -2.0924201790367913 0.25864564931620715 C -2.0800532354544554 0.26742797157032927 -2.069478602536227 0.2778233734221477 -2.059083200684409 0.28803954420755545 C -2.0373962416487186 0.30918881004401333 -2.014992358347386 0.33105500014611394 -1.9804007625301288 0.3335642350758631 C -1.9635530422875267 0.33768654960330824 -1.8845121420004254 0.40758666550346584 -1.6032985988020994 0.7174771793274973 L -1.5767724009733217 0.7465126120860243 C -1.4937884172251858 0.8343358346272479 -1.448980650622521 0.8985005564022643 -1.411521357742693 0.9832768508145067 C -1.3392912379791966 1.1463771212482075 -1.3012942519001371 1.3132412440765322 -1.2928703917788358 1.351955154421235 C -1.303743623900413 1.3575320243735407 -1.3154109231426308 1.3614009733450532 -1.3274619875960934 1.363425942671517 C -1.3437524369030935 1.3661168777830943 -1.36047654151443 1.3636740310421127 -1.3753166823277396 1.3564359310815015 C -1.4233506081257965 1.332418968182473 -1.4496975748881638 1.3075058499513912 -1.4496975748881638 1.2861773530485225 C -1.4496975748881638 1.2793665725249175 -1.4471883399584144 1.2693296328059205 -1.4444998739622545 1.2585757688212809 C -1.4371514002394175 1.229540336062754 -1.4272936915868313 1.1901095014524086 -1.4574045107438218 1.1675263870846655 C -1.4814214736428506 1.1494240493771886 -1.4993445802839167 1.1515748221741167 -1.5113530617334308 1.153008670705402 C -1.517088455858572 1.1537255949710445 -1.5190599975890893 1.1539048260374551 -1.520135383987553 1.153008670705402 C -1.5238463516264933 1.1491955879016462 -1.5267697154211308 1.1446887353849131 -1.5287384751752648 1.1397455717910132 C -1.5332192518355314 1.13078401847048 -1.539313108093494 1.118596305954555 -1.5540100555391683 1.1168039952904485 C -1.5574154458009708 1.1155493778255738 -1.5649431505902185 1.1053332070401665 -1.5696031583168952 1.0990601197157932 C -1.579281635903071 1.0859762518678149 -1.588422420290015 1.0736093082854796 -1.6009685949387609 1.0719962286877835 C -1.609930148259294 1.0709208422893197 -1.6174578530485417 1.0745054636175329 -1.624627095704968 1.0779108538793352 C -1.6348432664903758 1.0827500926724232 -1.6463140547406583 1.0883062557311536 -1.6669256273778839 1.083287785871655 C -1.6869995068158778 1.078627778144978 -1.7002626057302668 1.0737885393518898 -1.7154972463751728 1.0684116073595702 C -1.7291188074223829 1.0635723685664824 -1.7445326791336997 1.0580162055077518 -1.767115793501443 1.0517431181833787 C -1.783067358411992 1.0472623415231124 -1.8029620067835752 1.0461869551246483 -1.820347420225409 1.0454700308590057 C -1.8419704436856774 1.0435656517975853 -1.8635062709056167 1.0499751241844721 -1.880569058539391 1.0633931375000716 C -1.902256017575081 1.0814954752075485 -1.910679877696382 1.1046162827745234 -1.9182075824856297 1.124869393278928 C -1.9216917011318502 1.1362132341886197 -1.9266318596191236 1.1470574845265369 -1.932904529931304 1.157130985232847 C -1.9515445608380124 1.1831194898623925 -1.995097709975803 1.244058052442017 -1.9911546265147686 1.3119866266116573 C -1.9875700051865552 1.373462882390514 -1.9587138034944391 1.4442591536227247 -1.9239429766107707 1.476699976643054 C -1.892577539988905 1.5060938715344026 -1.8069050902446093 1.5711547486414723 -1.7558242363175716 1.5731262903719894 C -1.7340772920679537 1.5747117703077604 -1.7123679291922433 1.569581603864509 -1.6936310562730725 1.5584293429263154 C -1.6868202757494672 1.5546654905316915 -1.6828771922884327 1.5526939488011742 -1.6789341088273984 1.5526939488011742 C -1.675349487499185 1.5526939488011742 -1.672661021503025 1.5541277973324592 -1.671585635104561 1.5566370322622087 C -1.669972555506865 1.5602216535904219 -1.671047941905329 1.5668532030476163 -1.6787548777609873 1.5752770631689175 C -1.6970364465348748 1.595530173673322 -1.7312695802193108 1.6331686976195607 -1.720694947301082 1.7045026620510035 C -1.7146010910431195 1.7462635005246874 -1.709044927984389 1.7901751117952989 -1.7094033901172103 1.8278136357415378 L -1.7094033901172103 1.8335490298666788 C -1.7090449279843891 1.852547522906209 -1.708148772652336 1.8720837091449707 -1.7070733862538718 1.892516050715786 C -1.7013379921287306 2.0061485468201443 -1.6947064426715364 2.135015683569409 -1.7818127409471174 2.3099452043862145 C -1.7923873738653462 2.330915239156261 -1.8065466281117883 2.35779989911786 -1.8228566551551584 2.388806873606904 C -1.8723244294845005 2.4823654902732697 -1.9402530036541408 2.6105157027568913 -1.979146145065254 2.718233573669698 C -1.9952769410422138 2.7626828781395423 -2.0343493135197375 2.825413751383273 -2.072167068532387 2.885993851830076 C -2.1110602099435 2.9483662629409864 -2.147623347491275 3.007154052723682 -2.160169522140021 3.0467641184004384 C -2.166724271592223 3.070789451395753 -2.177331732391709 3.0935197245375097 -2.1915349587618866 3.113975768304436 C -2.2018849886534495 3.1281220398922605 -2.20909546190149 3.144315051847604 -2.2126842245983442 3.1614720009032613 C -2.2194950051219497 3.190686664728199 -2.245841971884317 3.2276082644087944 -2.2813297230336276 3.2578983146321967 C -2.304271299534192 3.277255269804548 -2.338145971085807 3.298762997773826 -2.362879858250478 3.3145353316179653 C -2.3786521920946155 3.3245722713369625 -2.390122980344898 3.3317415139933884 -2.3951414502043966 3.3362222906536543 L -2.398009147266967 3.3383730634505824 C -2.406612238454679 3.344646150774956 -2.4279407353575473 3.3600600224862722 -2.4220261101659957 3.38658622031505 C -2.448910770127595 3.403254709491242 -2.548563243051922 3.4573824915472606 -2.66470497408603 3.5129441221345656 L -2.6905142476491646 3.5253110657169016 C -2.7783374701903885 3.5668926731241744 -2.82206985039459 3.5964657990819333 -2.872971473255217 3.630519701699959 C -2.890382871657487 3.6422505799048412 -2.9078883386563343 3.6538412304091965 -2.925486175713567 3.665290528583644 C -2.9948485984144657 3.7097398330534705 -3.0649279453810343 3.7405675764761046 -3.1111695605149845 3.7609999180469194 C -3.12769482045712 3.767718761460195 -3.1438487110349356 3.775317072954204 -3.1595619484458624 3.783762263481073 C -3.177126592954107 3.794336896399302 -3.1902104608020854 3.7930822789344276 -3.205265870380581 3.7914691993367313 C -3.211001264505722 3.7909315061375004 -3.216736658630863 3.7903938129382677 -3.2230097459552365 3.7903938129382677 C -3.241291314729124 3.7903938129382677 -3.2507905612488885 3.8002515215908534 -3.257063648573262 3.8067038399816377 C -3.25921442137019 3.809213074911387 -3.26190288736635 3.811901540907547 -3.263157504831225 3.8120807719739576 L -3.2697890542884194 3.8127976962396 C -3.2875329298630747 3.8144107758372963 -3.324633760610081 3.817995397165509 -3.321945294613921 3.8473892920568575 L -3.321766063547511 3.8488231405881432 C -3.3190775975513507 3.880367808276419 -3.3065314229026046 3.895781679987736 -3.2432628564596415 3.8975739906518427 C -3.228565909013967 3.897932452784664 -3.214944347966757 3.898290914917485 -3.202039711185189 3.898290914917485 C -3.1470157737971167 3.898290914917485 -3.1088395566516462 3.8941686003900404 -3.080879510291583 3.885923971335149 L -3.0763987336313163 3.8844901228038644 C -3.040731751415595 3.873736258819225 -2.992160132418306 3.859039311373551 -2.944843130885892 3.8676424025612617 L -2.925844637846362 3.871047792823065 C -2.8769145567162515 3.8800093461435985 -2.826371395988445 3.8893293615969524 -2.795722883632223 3.880367808276419 C -2.7584428218188055 3.869255482158958 -2.750735885963147 3.854737765779695 -2.7320958550564383 3.8099299991770295 C -2.714710441614604 3.7683483917697567 -2.6634503566211554 3.7278421707609466 -2.5915786989904803 3.6991652001352415 C -2.5410355382626744 3.6789120896308374 -2.4743615815579085 3.6665451460485006 -2.420771492701121 3.6565082063295042 C -2.39603760553645 3.651848198602827 -2.374888339699992 3.647725884075382 -2.358219850523801 3.643782800614347 C -2.184544947171871 3.6007673446757886 -2.0372170105823084 3.500935640685051 -1.9187452756848618 3.4208193539994864 C -1.8651551868280742 3.3846146785845326 -1.8189135716941238 3.353428473029078 -1.7775111953532612 3.3317415139933884 C -1.7310903491529002 3.3075453200279483 -1.6540209905963164 3.2799437358007077 -1.564943150590218 3.247682143846788 C -1.395211330699323 3.1865643502007535 -1.1838979034011543 3.110570378042633 -1.0510876831908549 3.011634829383948 C -1.0105814621820461 2.9815240102269573 -0.9460582782742084 2.9510547289371454 -0.9121836067225932 2.954280888132537 C -0.890675878753314 2.956431660929465 -0.8901381855540822 2.9800901616956725 -0.8937228068822956 3.053216436791222 L -0.8951566554135804 3.0815349452841057 C -0.8983828146089725 3.159500459172744 -0.8747243138427656 3.2354944313308636 -0.8573389004009311 3.2910560619181677 L -0.8498111956116836 3.3148937937507856 L -0.8451511878850066 3.330666127594924 C -0.8302750093729219 3.3792377465922128 -0.8175496036577647 3.420998585065897 -0.8223888424508528 3.474409442856274 C -0.8235413904787059 3.487666172430795 -0.8246167950804564 3.500929495852386 -0.8256150016462507 3.5141987395995145 C -0.8274073123103509 3.5364233918343624 -0.828661929775226 3.5539880363426066 -0.8311711647049749 3.5686849837882813 L -0.8311711647049749 3.568864214854692 C -0.8324124520176848 3.578015979865773 -0.8347596084958195 3.5869833212822355 -0.8381611762949905 3.595569643749881 C -0.8455096500178279 3.6125965950588927 -0.8537542790727182 3.6161812163871065 -0.8650458362565896 3.6210204551801946 C -0.8678877276597898 3.622261058575172 -0.8706966438374764 3.623575870403025 -0.8734696963778901 3.6249635386412287 C -0.9053728261989886 3.6409151035517775 -0.9209659289767154 3.6626020625874673 -0.9173813076485025 3.686081332287264 C -0.9129005309882361 3.714758302912969 -0.8852989467609942 3.742180656073801 -0.8580558246665739 3.7446898910035493 L -0.850528119877326 3.745227584202782 C -0.8396347324867381 3.7455798741386115 -0.828814334652709 3.7471428204924155 -0.8182665279234076 3.7498875919294585 C -0.7998679822728496 3.7550503226552427 -0.783366602938186 3.7654493051038793 -0.7707702953245823 3.7798191800200387 C -0.7361786995073252 3.8181746282319207 -0.7033794143541741 3.8545585347132842 -0.6392146925791575 3.8565300764438017 L -0.6333000673876064 3.8567093075102123 C -0.5677014970813041 3.8567093075102123 -0.5384868332563668 3.819787707829616 -0.5189506470176046 3.714399840780148 C -0.5087344762321973 3.659734365524897 -0.4994144607788429 3.5706565255187988 -0.4904529074583097 3.484446382575271 C -0.48131212307136595 3.3957270047019943 -0.4716336454851904 3.3037814676333257 -0.46105901256696136 3.2483990681124313 C -0.4085443101086379 2.9738170743712997 -0.4332781972733093 2.651738848031343 -0.45747439123874845 2.5481432916459816 M -2.754499738357771 3.8006099837236755 C -2.7729605381980686 3.8452385192599303 -2.7765451595262824 3.8495400648537856 -2.8025336641558285 3.8570677696430336 C -2.8276260134533207 3.8645954744322815 -2.877452249915484 3.8552754589789267 -2.9213638611860957 3.847210060990447 L -2.9405415852920362 3.8438046707286455 C -2.993593980949592 3.83430542420888 -3.0453917591422726 3.8498985269866077 -3.083388745221333 3.8613693152368898 L -3.0878695218815992 3.8628031637681746 C -3.1192349585034647 3.8721231792215294 -3.168344270699986 3.8755285694833317 -3.2425459321939996 3.8733777966864036 C -3.2955983278515544 3.871943948155118 -3.2963152521171977 3.8624447016353542 -3.2977491006484825 3.846672367791215 L -3.2979283317148926 3.8452385192599303 C -3.2981075627813037 3.843625439662234 -3.2954190967851438 3.8395031251347893 -3.2674590504250807 3.8368146591386294 L -3.2597521145694226 3.8359185038065755 C -3.2502528680496576 3.8346638863417013 -3.2443382428581056 3.8283907990173276 -3.239499004065018 3.8235515602242405 C -3.2339428410062876 3.817636935032689 -3.2305374507444853 3.8145900069037078 -3.223009745955237 3.8145900069037078 C -3.2179194818131593 3.8146259752089486 -3.2128344811561815 3.8149250928946534 -3.2077751053103305 3.8154861622357608 C -3.1869240854462295 3.819319789031982 -3.1653905190742786 3.8154335536808306 -3.147195004863528 3.8045530671847105 C -3.1389503758086374 3.799534597325212 -3.122461117698857 3.792365354668785 -3.1014910829288094 3.783224570281842 C -3.0545325435292163 3.762433766578205 -2.9833778101641837 3.731068329956339 -2.9124023078655625 3.6855436390880323 C -2.892866121626801 3.6729974644392858 -2.875839170317788 3.661526676189003 -2.8595291432744183 3.6505935811379526 C -2.811674448542772 3.6185112202504452 -2.7700928411354986 3.5905511738903817 -2.6910519408483973 3.552374956744911 L -2.6905142476491655 3.553808805276196 L -2.6838826981919706 3.5672511352569956 L -2.6826280807270964 3.570118832319567 C -2.6798638414066236 3.575905374737408 -2.676995679881375 3.581641697787905 -2.674024989539386 3.587325014694988 L -2.6666765158165475 3.6016635000078425 L -2.6656011294180835 3.60363504173836 L -2.6582526556952466 3.61725660278557 C -2.6553866989538215 3.6225582951530884 -2.652337942594238 3.6277591148253183 -2.6491118713083037 3.632849705563296 L -2.6474987917106065 3.6357174026258683 L -2.638895700522895 3.6496974258058996 L -2.637103389858788 3.6520274296692383 L -2.6274249122726125 3.6665451460485023 L -2.627245681206202 3.666724377114913 C -2.623444033893321 3.6722036123038535 -2.6194995992965406 3.6775823867540085 -2.615416430823099 3.6828551730918715 C -2.685675008856077 3.7136829165145055 -2.735859707451062 3.7561606792538322 -2.754499738357771 3.8006099837236755 M -1.389475936574182 0.97341914216192 C -1.4335667789112045 0.873766669237593 -1.489128409498509 0.8040457844038461 -1.5592077564650775 0.7298441229098326 C -1.56261314672688 0.7264387326480302 -1.5717539311138236 0.7162225618626223 -1.585375492161034 0.7011671522841271 C -1.895445237051476 0.3595527397054083 -1.9574591860295645 0.3109811207081195 -1.9782499897332009 0.30954727217683414 C -2.0044177254291577 0.30757573044631703 -2.021982369937402 0.29054877913730404 -2.0422354804418066 0.27065413076572087 C -2.053168575492857 0.2599002667810811 -2.0644601326767287 0.2489671717300307 -2.0782609247903494 0.23910946307744452 C -2.0949294139665406 0.22710098162793035 -2.104966353685538 0.2134794205807199 -2.1056832779511807 0.2016501701976166 C -2.105862509017591 0.19609400713888608 -2.104070198353485 0.19233015474426224 -2.102277887689378 0.19071707514656644 C -2.0978584099682998 0.18661338455196774 -2.0954386405171697 0.18079285803438486 -2.095646338232184 0.17476551023601697 C -2.095646338232183 0.1507485473369891 -2.1316717825807263 0.11346848552357158 -2.144217957229473 0.10217692833970007 L -2.147264885358454 0.09948846234354025 C -2.1653672230659304 0.0833576663665809 -2.2031849780785793 0.0498414569477872 -2.2012134363480627 0.03209758137313205 C -2.1994211256839558 0.016504478595404437 -2.20874114113731 -0.0007017037800189502 -2.2177026944578433 -0.017370192956210076 C -2.221874201204022 -0.02460412905864591 -2.225469923761196 -0.03215514642871163 -2.228456558442483 -0.03995330732395309 C -2.208382679004489 -0.03457637533163347 -2.146010267893579 0.013457550466423288 -2.1019194255565568 0.06686840825680018 C -2.0635639773446757 0.11328925445716118 -1.9780707586667905 0.20111247699838486 -1.9264522115405207 0.23821330774539146 C -1.8958036991842977 0.26025872891390245 -1.884512142000426 0.27656875595727276 -1.873399815882965 0.2925203208678217 C -1.8639116672877676 0.3077809297361264 -1.851482804590787 0.32100182780105163 -1.8368366783351904 0.33141346227893526 C -1.8205266512918201 0.34306348159562783 -1.7508057664580734 0.4027474267103777 -1.6771417981632921 0.4661952242197517 C -1.5846585678953913 0.545773817706085 -1.4889491784320987 0.6280408771885779 -1.4638568291346066 0.6447093663647693 C -1.44037755943481 0.6604817002089073 -1.4120590509419255 0.6922055989635946 -1.3819482317849348 0.7259010394487984 C -1.3568558824874424 0.7542195479416826 -1.3308673778578963 0.7832549807002098 -1.304161948962708 0.8072719435992384 C -1.1281570417474396 0.9655329752398512 -1.0118360796469212 1.1854494937257314 -0.9270597852346789 1.3460405292296833 C -0.903222053402061 1.391027526898759 -0.8820727875656034 1.4309960547083362 -0.8632535255924836 1.4621822602637908 L -0.8745450827763555 1.4621822602637908 L -0.8806389390343181 1.4620030291973805 L -0.8858366399602273 1.4618237981309696 L -0.8926474204838319 1.4614653359981482 L -0.89748665927692 1.4611068738653268 L -0.9048351329997568 1.4607484117325058 L -0.9096743717928444 1.4602107185332738 L -0.9172020765820923 1.4596730253340418 L -0.9223997775080015 1.4591353321348097 L -0.929927482297249 1.4582391768027565 C -0.9317803585899154 1.4580685431570901 -0.9336324328933845 1.45788931015998 -0.9354836453559745 1.457701483603525 L -0.9431905812116383 1.4568053282714712 L -0.9521521345321711 1.4555507108065966 L -0.961651381051936 1.4541168622753116 C -0.9664082348093794 1.453670126423816 -0.9711356864285952 1.4529520325069731 -0.9758106352983784 1.4519660894783835 L -0.9838760332868581 1.450532240947098 C -0.9859045815797307 1.450158437792038 -0.987935924968236 1.4497999654293603 -0.989969889544815 1.449456854548635 L -0.9980352875333001 1.4478437749509383 L -1.0039499127248517 1.4467683885524742 L -1.012373772846153 1.4449760778883676 C -1.0143625710662834 1.4446438171875353 -1.0163359774817118 1.4442252158266866 -1.0182883980377047 1.4437214604234931 L -1.0268914892254166 1.4419291497593865 L -1.032447652284147 1.440674532294512 C -1.0356390416290204 1.4400034712089143 -1.0388072110784523 1.4392263730420727 -1.041946898803912 1.4383445284311736 L -1.046606906530589 1.4372691420327095 L -1.0607661607770313 1.4336845207044964 C -1.107903931243035 1.4213175771221607 -1.159522478369305 1.3967629210239 -1.2011040857765782 1.3770475037187275 C -1.2048741009681647 1.3751430419062178 -1.2086993532277504 1.3733499549095367 -1.2125748740268598 1.3716705717264084 L -1.2163387264214847 1.3696990299958907 L -1.2238664312107321 1.366293639734088 L -1.2279887457381773 1.3643220980035706 L -1.2344410641289612 1.361454400941 L -1.2382049165235847 1.3596620902768934 L -1.2446572349143685 1.3569736242807338 L -1.247524931976939 1.3557190068158589 L -1.256128023164651 1.3523136165540566 C -1.2563763411639681 1.3520941579852586 -1.256693011277338 1.3519674899399106 -1.257024178496704 1.3519551544212352 L -1.2636557279538985 1.3496251505578967 L -1.2659857318172372 1.348908226292254 C -1.2670111229992544 1.3485780074006748 -1.2680271564910415 1.34821940734475 -1.2690326599462183 1.34783283989379 C -1.2972878177986291 1.2195105289825297 -1.3376151091501425 1.0941478628615298 -1.3894759365741824 0.9734191421619189 M -1.6979326018669283 1.4501737788142766 L -1.7079695415859255 1.4507114720135086 L -1.7086864658515681 1.4507114720135086 C -1.7362880500788096 1.451966089478383 -1.7812750477478856 1.4537584001424897 -1.7848596690760987 1.4439006914899035 C -1.7848596690760987 1.4392406837632261 -1.7735681118922269 1.4254398916496054 -1.7665781003022112 1.4171952625947148 C -1.7495511489931985 1.3965836899574888 -1.7303734248872578 1.3732836513241031 -1.7407688267390762 1.3508797680227707 C -1.7431243983584335 1.3460560281475655 -1.7458823708105802 1.3414394220863635 -1.7490134557939665 1.33707897590915 C -1.755107312051929 1.328475884721438 -1.7631727100404084 1.3182597139360304 -1.7724927254937632 1.3064304635529267 C -1.7888027525371333 1.2856396598492903 -1.808876631975127 1.2601888484189765 -1.8235735794208012 1.2350964991214841 C -1.8320840620799572 1.2215871068832056 -1.8384335829648863 1.2068320297791792 -1.8423928413939208 1.1913641189172828 L -1.8445436141908487 1.1804310238662328 L -1.845260538456491 1.1768464025380196 L -1.846335924854955 1.1700356220144146 C -1.8465031422366613 1.1687196505763044 -1.8466823807853836 1.167405234552341 -1.846873618054187 1.1660925385533805 L -1.8477697733862404 1.160177913361828 L -1.8481282355190618 1.156414060967204 L -1.8484866976518828 1.1510371289748842 L -1.8486659287182938 1.1474525076466713 L -1.8486659287182938 1.1472732765802605 L -1.8488451597847044 1.1424340377871725 L -1.8486659287182938 1.1392078785917807 L -1.8486659287182938 1.1341894087322824 L -1.8483074665854724 1.131142480603301 L -1.8483074665854724 1.130604787404069 C -1.8481066699306894 1.1292389679756996 -1.847986972827227 1.127862451285881 -1.847949004452651 1.126482472876624 L -1.847411311253419 1.123794006880464 L -1.8472320801870084 1.1230770826148215 L -1.8472320801870084 1.122897851548411 L -1.8465151559213657 1.119133999153787 L -1.845977462722134 1.1166247642240377 L -1.845798231655723 1.1157286088919842 L -1.845798231655723 1.1155493778255736 L -1.844722845257259 1.112143987563771 L -1.8440059209916166 1.109634752634022 L -1.8436474588587952 1.1089178283683796 L -1.8436474588587952 1.108738597301969 L -1.8423928413939208 1.1053332070401665 C -1.8420174041315782 1.104588263465059 -1.8417171999741697 1.103807732655797 -1.8414966860618676 1.103003203176828 C -1.8413114746260009 1.1028031644741338 -1.8411871280296812 1.1025544712814945 -1.8411382239290461 1.102286278911185 L -1.8409589928626353 1.101927816778364 L -1.83952514433135 1.0987016575829718 L -1.8382705268664756 1.0967301158524547 L -1.8379120647336542 1.0958339605204013 L -1.8377328336672436 1.0954754983875798 L -1.835940523003137 1.0924285702585985 L -1.8346859055382625 1.0904570285280815 L -1.8339689812726196 1.089560873196028 L -1.8339689812726196 1.0892024110632068 L -1.831818208475692 1.0861554829342257 C -1.8313960272269325 1.0855154896310149 -1.8309160697222016 1.0849155427501012 -1.8303843599444065 1.084363172270119 L -1.829667435678764 1.083287785871655 L -1.8294882046123535 1.0831085548052444 L -1.8271582007490148 1.0800616266762633 L -1.825545121151319 1.0782693160121568 L -1.8246489658192655 1.0771939296136928 L -1.824469734752855 1.0770146985472822 L -1.8217812687566952 1.0741470014847116 L -1.8201681891589991 1.072354690820605 L -1.819092802760535 1.071279304422141 L -1.8187343406277137 1.0709208422893197 L -1.8176589542292496 1.0698454558908557 C -1.8026035446507545 1.0705623801564983 -1.7861142865409734 1.0716377665549623 -1.7735681118922275 1.0750431568167649 C -1.7518811528565372 1.0811370130747273 -1.7375426675436847 1.0861554829342257 -1.7237418754300637 1.091173952793724 C -1.7083280037187467 1.0965508847860437 -1.6938102873394834 1.1017485857119529 -1.6726610215030255 1.106946286637862 C -1.6529663700072779 1.1121334794141002 -1.6320285762776647 1.1095001986076152 -1.6142316938531505 1.099597812915025 C -1.6101093793257053 1.0978055022509186 -1.6059870647982597 1.0958339605204008 -1.6045532162669747 1.0958339605204008 C -1.5983816620579048 1.1008160734431764 -1.5931078951940878 1.1068172564261398 -1.5889601134892473 1.1135778360950563 C -1.5792816359030715 1.1266617039430347 -1.569961620449717 1.1390286475253701 -1.557415445800971 1.140641727123066 C -1.5556231351368646 1.1408209581894766 -1.5538308244727579 1.143867886318458 -1.5504254342109554 1.1504994357756524 C -1.5470777422902733 1.1584123192932247 -1.5421357892480594 1.1655506959097561 -1.5359077178316918 1.1714694705456996 C -1.5265877023783374 1.1793556374677685 -1.5165507626593402 1.178101020002894 -1.5083061336044499 1.17702563360443 C -1.4984484249518637 1.175950247205966 -1.488232254166456 1.1745163986746807 -1.471922227123086 1.1868833422570164 C -1.4557914311461266 1.1987125926401199 -1.4600929767399822 1.2216541691406841 -1.4679791436620513 1.2526611436297286 C -1.4712111797452159 1.2635737424876123 -1.4731953964367641 1.2748176370730515 -1.4738937688536031 1.286177353048522 C -1.4738937688536031 1.3180804828696195 -1.4443206428958442 1.3489082262922532 -1.3860705463123795 1.378122890117191 C -1.3701943580127032 1.3860202089582279 -1.3525012267474434 1.3895464623922131 -1.3348104613189309 1.3883390609025985 C -1.3255399696168402 1.405085094532678 -1.313615762255374 1.4202173373771787 -1.2995019412360311 1.4331468275052635 L -1.2966342441734602 1.4361937556342448 C -1.281041141395733 1.4523245516112042 -1.2636557279538985 1.470426889318681 -1.2498549358402777 1.491576155155139 L -1.2469872387777077 1.4960569318154053 L -1.246628776644886 1.4965946250146378 C -1.2309629721252957 1.521223414411503 -1.2232076417978641 1.550055731193326 -1.224404124409964 1.579220146629952 C -1.2272718214725349 1.6371117810805953 -1.244478003847958 1.6819195476832602 -1.2744095919385385 1.7088042076448593 C -1.299390298041132 1.7304504363176696 -1.3322284341350359 1.7407691391614062 -1.3651005115423325 1.7373019472041542 L -1.3745997580620974 1.7365850229385116 L -1.3776466861910788 1.7360473297392798 L -1.3837405424490412 1.7353304054736371 L -1.3873251637772543 1.7346134812079945 L -1.3923436336367527 1.7335380948095305 C -1.3951662556939068 1.7329452456673442 -1.3979749440291451 1.732287893078246 -1.400767493758054 1.7315665530790134 L -1.4043521150862668 1.7304911666805494 L -1.4088328917465334 1.7290573181492639 L -1.4124175130747465 1.7278027006843895 L -1.4165398276021917 1.7261896210866934 C -1.4177057102203565 1.7257882716496042 -1.4188433887664174 1.7253092491038944 -1.419945217863994 1.7247557725554084 L -1.4238883013250287 1.723142692957712 L -1.427114460520421 1.7215296133600162 L -1.4308783129150446 1.7197373026959095 L -1.4339252410440257 1.717944992031803 C -1.4351764429064287 1.7173958724882867 -1.4363760851769272 1.7167360692395124 -1.4375098623722389 1.7159734503012858 C -1.438563725436646 1.715443504701081 -1.4395815678193629 1.7148447738877184 -1.4405567905012202 1.7141811396371793 L -1.443962180763023 1.7122095979066618 L -1.4466506467591826 1.7102380561761448 L -1.4498768059545746 1.7080872833792167 L -1.4525652719507343 1.7061157416486996 L -1.4556122000797158 1.7037857377853611 L -1.4581214350094651 1.7018141960548434 L -1.4611683631384462 1.6993049611250943 L -1.4634983670017847 1.697333419394577 L -1.4661868329979446 1.6948241844648277 L -1.4685168368612833 1.6926734116679 L -1.471205302857443 1.6899849456717402 L -1.4731768445879605 1.6881926350076335 L -1.4758653105841202 1.6851457068786524 L -1.477478390181816 1.6833533962145457 C -1.478598070287673 1.6821991424197829 -1.4796742081559593 1.6810034336772424 -1.4807045493772082 1.6797687748863321 L -1.4816007047092612 1.6786933884878688 L -1.4853645571038852 1.6740333807611913 L -1.4864399435023492 1.672778763296317 L -1.4889491784320985 1.6693733730345144 L -1.490203795896973 1.6675810623704077 C -1.490963436501984 1.666657959019301 -1.4916810888462413 1.6657010892269575 -1.492354568693901 1.6647133653078372 L -1.4936091861587755 1.6629210546437307 L -1.4954014968228821 1.6602325886475708 L -1.4964768832213462 1.6584402779834642 L -1.498089962819042 1.6559310430537149 C -1.4984430773311999 1.6552346365244819 -1.498863272280231 1.6545743301760039 -1.4993445802839165 1.6539595013231976 L -1.5005991977487911 1.651629497459859 L -1.5016745841472552 1.6498371867957524 C -1.502158431153327 1.64916062265493 -1.5025784383474596 1.6484406103221312 -1.5029292016121298 1.6476864139988243 C -1.5032476392189995 1.6470658561934302 -1.503606889997302 1.6464671048962596 -1.504004588010594 1.6458941033347183 L -1.505079974409058 1.6437433305377902 L -1.505976129741111 1.6421302509400943 L -1.5068722850731644 1.6401587092095768 L -1.5075892093388068 1.6387248606782916 L -1.50848536467086 1.6369325500141851 L -1.5092022889365024 1.6354987014828999 L -1.5099192132021453 1.6338856218852038 C -1.510065624032845 1.6334540998873273 -1.5102453979413282 1.6330346274341994 -1.5104569064013773 1.6326310044203294 L -1.5111738306670197 1.631197155889044 C -1.511349598339713 1.6308599747863224 -1.5114705982763625 1.630496974976373 -1.511532292799841 1.6301217694905799 L -1.5120699859990732 1.6286879209592948 C -1.5122894445678707 1.6284396029599777 -1.512416112613219 1.6281229328466071 -1.5124284481318941 1.6277917656272411 L -1.512607679198305 1.6276125345608308 L -1.5124284481318944 1.6265371481623667 C -1.5122218634430626 1.625837486782145 -1.5121014852545744 1.6251152176512158 -1.5120699859990732 1.6243863753654386 L -1.5113530617334305 1.6215186783028683 L -1.5113530617334305 1.6213394472364575 L -1.5111738306670197 1.6199055987051723 L -1.5109945996006093 1.619009443373119 L -1.5108153685341983 1.617934056974655 L -1.5104569064013769 1.6152455909784953 L -1.5099192132021453 1.6111232764510501 L -1.5095607510693239 1.6066424997907836 C -1.509353081822037 1.6053978493932461 -1.5092332983125225 1.6041401225433412 -1.5092022889365024 1.6028786473961592 L -1.5092022889365024 1.595350942606911 C -1.509224698392458 1.5940295574887458 -1.5093445105948569 1.5927116232623595 -1.5095607510693239 1.5914078591458767 L -1.5097399821357345 1.5881816999504847 L -1.5102776753349665 1.5845970786222718 L -1.5108153685341985 1.581729381559701 C -1.51100699814186 1.5805687378038595 -1.5113070296552786 1.5794286180528685 -1.511711523866252 1.5783239912978986 C -1.5117094672597775 1.5783220659641772 -1.5117094672597775 1.5783220659641772 -1.5117094672597775 1.5783220659641772 L -1.5138622966631796 1.5709755175750615 L -1.5143999898624116 1.5697209001101868 L -1.5149376830616434 1.5682870515789018 L -1.515654607327286 1.5666739719812057 L -1.5160130694601075 1.5661362787819737 L -1.5169092247921605 1.5641647370514564 C -1.5173151608950186 1.5631744954996467 -1.5177944417437133 1.5622159338022577 -1.518343073323446 1.561297039988886 C -1.5188269203295177 1.5606204758480635 -1.5192469275236504 1.5599004635152647 -1.5195976907883206 1.559146267191958 L -1.521390001452427 1.556099339062977 L -1.5228238499837126 1.5541277973324592 C -1.523375693713044 1.553103598188515 -1.5240367201089013 1.5521421052490856 -1.5247953917142296 1.5512601002698891 L -1.526229240245515 1.5492885585393714 C -1.5269486567619424 1.5482303870950247 -1.5277265327629368 1.5472131646321858 -1.5285592441088534 1.5462416304103903 L -1.5299930926401388 1.5444493197462836 L -1.5326815586362987 1.541223160550892 L -1.5339361761011734 1.5397893120196067 C -1.5350642901820477 1.5384689078963 -1.5361994364042362 1.5371545280600816 -1.5373415663629781 1.5358462285585694 L -1.5380584906286185 1.5351293042929295 L -1.5421808051560635 1.5302900654998415 L -1.546840812882741 1.5250923645739325 C -1.5798193291023024 1.4881707648933364 -1.6498986760688703 1.44838146815017 -1.6979326018669274 1.4501737788142766 M -2.0664316744072444 3.1741974066184184 L -2.097976342095521 3.1905074336617876 C -2.10784561493515 3.195341759509496 -2.117530846001971 3.2005430873046405 -2.127011774854048 3.206100536439515 C -2.1504910445538448 3.2204390217523686 -2.1598110600071987 3.2518044583742336 -2.168055689062089 3.2792268115350645 C -2.169604818350836 3.2848976784517374 -2.1713383049651434 3.2905165660981126 -2.173253389987998 3.296074531777668 C -2.184903409304691 3.3308453586613345 -2.2015718984808825 3.353428473029078 -2.215731152727325 3.353428473029078 C -2.2173442323250208 3.353428473029078 -2.2177026944578424 3.3528907798298464 -2.2180611565906636 3.352711548763436 C -2.223258857516573 3.347334616771116 -2.22254193325093 3.326185350934658 -2.2221834711181083 3.3161484112156616 C -2.2220042400516977 3.3095168617584667 -2.221825008985287 3.3043191608325575 -2.22254193325093 3.3003760773715225 C -2.223154679962385 3.295290208911511 -2.226434159796238 3.2909175691330415 -2.231145024438642 3.2889052891212405 C -2.242615812688924 3.284245281394563 -2.2573127601345986 3.2937445279143285 -2.299432060741103 3.3245722713369625 C -2.311082080057796 3.3329961314582626 -2.3230905615073105 3.3417784537123856 -2.3324105769606645 3.347872309970348 L -2.345852906941464 3.3568338632908805 C -2.36646447957869 3.370634655404502 -2.383312199821292 3.3819262125883736 -2.3985468404661985 3.380850826189909 C -2.400159920063894 3.3718892728693763 -2.3946037570051635 3.3656161855450035 -2.383849893020524 3.357909249689345 L -2.3793691163602575 3.3545038594275427 C -2.3756052639656335 3.35127770023215 -2.3630590893168875 3.3432123022436713 -2.349975221468909 3.334967673188781 C -2.3245244100385953 3.3188368772118206 -2.2899328142213378 3.2967914560433096 -2.2657366202558986 3.2761798834060833 C -2.2257680924463212 3.242305211854469 -2.197091121820616 3.2014405287128387 -2.189204954898547 3.166848932895581 C -2.1845449471718696 3.1469542845239973 -2.1789887841131392 3.1388888865355185 -2.1714610793238913 3.127597329351646 C -2.1621410638705374 3.113617306171615 -2.150670275620255 3.0964111237961918 -2.137227945639455 3.0541125921232757 C -2.1255779263227623 3.017370223509091 -2.08973171304063 2.9598370511912684 -2.05173472696157 2.8988984886116436 C -2.013200047683278 2.8370637706999657 -1.9734107509401118 2.7732575110577713 -1.9565630306975095 2.7264782027245884 C -1.9180283514192176 2.620373411409478 -1.850637470448809 2.4929401231914987 -1.8015281582522882 2.4000984307907762 C -1.7850389001425075 2.368912225235321 -1.7708796458960654 2.342027565273723 -1.7603050129778361 2.3206990683708533 C -1.670151786573274 2.140034153428908 -1.6773210292297007 2.00220546335911 -1.682877192288431 1.891440664317322 C -1.6839774632519264 1.8732340720261427 -1.6847542537275497 1.8550093724057444 -1.6852071961517694 1.836775189062072 C -1.6780379534953431 1.8269174804094843 -1.6595771536550452 1.8115036086981677 -1.6402201984826938 1.7951935816547977 C -1.616920159849308 1.7758366264824463 -1.5891393445556556 1.7525365878490606 -1.5660185369886803 1.7272650074851574 C -1.5613585292620034 1.7657996867634493 -1.548812354613257 1.8364167269292495 -1.526229240245514 1.8935914371142502 C -1.502212277346485 1.954529999693875 -1.4677999125956385 2.030882433984816 -1.4452167982278952 2.076407124853124 C -1.475506848451297 2.0864440645721203 -1.5206730771867834 2.128025671979394 -1.5396715702263135 2.1991804053444257 C -1.5663152928969917 2.300659976779042 -1.6010170982703082 2.399850802155272 -1.643446357678088 2.4958078202540683 C -1.6999041435974458 2.6280803472651364 -1.818913571694124 2.809103724339903 -1.8968790855827615 2.900870030342161 C -1.922283724094003 2.9306896593164344 -1.947974699500513 2.9602641542611368 -1.9739484441393684 2.9895894082154637 C -2.007464653558139 3.027944856427319 -2.027896995128954 3.0510656639942937 -2.042235480441807 3.073469547295627 C -2.057649352153124 3.097665741261066 -2.0644601326767287 3.154123527180424 -2.066431674407246 3.1741974066184175 M -0.8489150402796306 3.721031390237342 C -0.8512490613842738 3.7210106879535365 -0.8535811570683234 3.720891093303072 -0.8559050518696463 3.7206729281045208 C -0.8704227682489099 3.719239079573236 -0.8904966476869038 3.7013159729321696 -0.8935435758158854 3.6823174798926397 C -0.8960528107456343 3.6652905285836272 -0.8729320031786587 3.6516689675364162 -0.8627158323932513 3.646471266610508 L -0.8553673586704145 3.643245107415116 C -0.8490942713460412 3.640377410352545 -0.8419250286896149 3.6373304822235637 -0.8349350170995993 3.6315950880984227 L -0.8351142481660099 3.635000478360225 L -0.8351142481660099 3.6409151035517775 L -0.8352934792324205 3.6470089598097397 L -0.8354727102988306 3.653102816067702 L -0.8354727102988306 3.6651112975172158 L -0.8352934792324205 3.6708466916423568 L -0.8352934792324205 3.6767613168339093 L -0.8351142481660099 3.6823174798926397 L -0.8347557860331887 3.688411336150602 L -0.8343973239003675 3.693609037076511 L -0.8340388617675458 3.699344431201652 L -0.8336803996347246 3.7043629010611507 L -0.8329634753690818 3.7097398330534705 L -0.8324257821698495 3.7145790718465586 L -0.8317088579042076 3.7195975417060563 L -0.8311711647049753 3.7226444698350383 C -0.8379819452285804 3.7217483145029844 -0.843896570420132 3.721389852370164 -0.848915040279631 3.721031390237342 M -0.8078711260715896 3.5823065448354914 L -0.8080503571379998 3.582844238034723 L -0.8078711260715896 3.581231158437027 L -0.8078711260715896 3.5823065448354914" fill="#000000" transform="matrix(1,0,0,1,0,0)" fill-rule="nonzero"></path></g></g><g><path d=" M 0.2761685624942499 1.446829991120318 L 0.048879391591902646 0.002443969579594807 L 0.20284947510639598 0.002443969579594807 L 0.3861471935760309 1.2342046376955413 L 0.6085484253191878 0.002443969579594807 L 0.7331908738785397 0.002443969579594807 L 0.9507041664625064 1.2317606681159463 L 1.1364458545117364 0.002443969579594807 L 1.292859907605825 0.002443969579594807 L 1.0631267671238824 1.446829991120318 L 0.8871609573930329 1.446829991120318 L 0.6720916343886614 0.34948764988210357 L 0.4570223113842897 1.446829991120318 L 0.2761685624942499 1.446829991120318 M 1.4957368296362104 1.446829991120318 L 1.4957368296362104 0.002443969579594807 L 1.6497069131507036 0.002443969579594807 L 1.6497069131507036 1.446829991120318 L 1.4957368296362104 1.446829991120318 M 1.9551744703315843 1.446829991120318 L 1.9551744703315843 0.002443969579594807 L 2.1067005842664823 0.002443969579594807 L 2.1067005842664823 1.336851360038537 L 2.5099555648996796 1.336851360038537 L 2.5099555648996796 1.446829991120318 L 1.9551744703315843 1.446829991120318 M 2.6810262754042107 1.446829991120318 L 2.6810262754042107 0.002443969579594807 L 2.832552389339109 0.002443969579594807 L 2.832552389339109 1.336851360038537 L 3.2358073699723056 1.336851360038537 L 3.2358073699723056 1.446829991120318 L 2.6810262754042107 1.446829991120318 M 3.406878080476837 1.446829991120318 L 3.406878080476837 0.002443969579594807 L 4.030090323273596 0.002443969579594807 L 4.030090323273596 0.11242260066137577 L 3.565736103150521 0.11242260066137577 L 3.565736103150521 0.6305441515355438 L 3.9372194792489807 0.6305441515355438 L 3.9372194792489807 0.7527426305153004 L 3.565736103150521 0.7527426305153004 L 3.565736103150521 1.336851360038537 L 4.030090323273596 1.336851360038537 L 4.030090323273596 1.446829991120318 L 3.406878080476837 1.446829991120318 M 4.242666749572999 1.446829991120318 L 4.242666749572999 0.002443969579594807 L 4.689913182638908 0.002443969579594807 Q 4.81455563119826 0.002443969579594807 4.890318688165709 0.05987725470008054 Q 4.966081745133158 0.11731053982056605 4.966081745133158 0.24195298837991785 L 4.966081745133158 0.5083456725557872 Q 4.966081745133158 0.5914406382620218 4.941642049337207 0.6635377408600781 Q 4.9172023535412555 0.7356348434581345 4.851215174892187 0.7796262958908469 Q 4.785227996243118 0.8236177483235593 4.660585547683767 0.8236177483235593 L 4.401524772246683 0.8236177483235593 L 4.401524772246683 1.446829991120318 L 4.242666749572999 1.446829991120318 M 4.401524772246683 0.7331908738785394 L 4.614150125671459 0.7331908738785394 Q 4.711908908855264 0.7331908738785394 4.762010285236965 0.6733136191784587 Q 4.8121116616186645 0.6134363644783779 4.8121116616186645 0.4887939159190262 L 4.8121116616186645 0.300608258290201 Q 4.8121116616186645 0.19307359678801528 4.765676239606357 0.14297222040631508 Q 4.71924081759405 0.09287084402461465 4.653253638944982 0.09287084402461465 L 4.401524772246683 0.09287084402461465 L 4.401524772246683 0.7331908738785394 M 5.540473070219557 1.4761576260754596 Q 5.464710013252107 1.4761576260754596 5.398722834603039 1.4639377781774838 Q 5.332735655953971 1.4517179302795082 5.28263427957227 1.4175023561651763 Q 5.23253290319057 1.3832867820508445 5.204427253025226 1.3160776186119785 Q 5.176321602859882 1.2488684551731122 5.176321602859882 1.1364458545117362 L 5.176321602859882 0.002443969579594807 L 5.330291686374375 0.002443969579594807 L 5.330291686374375 1.168217459046473 Q 5.330291686374375 1.2562003639118977 5.359619321329517 1.30019181634461 Q 5.388946956284658 1.3441832687773223 5.436604363086763 1.3600690710446908 Q 5.484261769888868 1.3759548733120592 5.540473070219557 1.3759548733120592 Q 5.59424040097065 1.3759548733120592 5.643119792562552 1.3600690710446908 Q 5.691999184154454 1.3441832687773223 5.7213268191095965 1.30019181634461 Q 5.750654454064738 1.2562003639118977 5.750654454064738 1.168217459046473 L 5.750654454064738 0.002443969579594807 L 5.902180567999636 0.002443969579594807 L 5.902180567999636 1.1364458545117362 Q 5.902180567999636 1.2488684551731122 5.874074917834292 1.3160776186119785 Q 5.8459692676689485 1.3832867820508445 5.797089876077045 1.4175023561651763 Q 5.748210484485143 1.4517179302795082 5.681001321046277 1.4639377781774838 Q 5.613792157607411 1.4761576260754596 5.540473070219557 1.4761576260754596 M 6.491238097252649 1.4639377781774838 Q 6.381259466170868 1.4639377781774838 6.301830454834026 1.4248342649039618 Q 6.222401443497184 1.3857307516304396 6.178409991064472 1.294081892395622 Q 6.13441853863176 1.2024330331608049 6.13441853863176 1.0386870713279308 L 6.13441853863176 0.9580360752012915 Q 6.173522051905281 0.9580360752012915 6.213847549968601 0.9580360752012915 Q 6.254173048031921 0.9580360752012915 6.290832591725848 0.9580360752012915 L 6.290832591725848 1.0484629496463114 Q 6.290832591725848 1.170661428626068 6.316494272311597 1.2378705920649342 Q 6.342155952897346 1.3050797555038003 6.387369390119855 1.3319634208793467 Q 6.432582827342365 1.3588470862548931 6.491238097252649 1.3588470862548931 Q 6.586552910856859 1.3588470862548931 6.646430165556939 1.2989698315548124 Q 6.70630742025702 1.2390925768547318 6.70630742025702 1.0851224933402384 Q 6.70630742025702 0.9751438622584574 6.674535815722283 0.920154546717567 Q 6.642764211187547 0.8651652311766765 6.5767770325384785 0.8321716418521422 Q 6.51078985388941 0.799178052527608 6.4154750402852 0.7600745392540859 Q 6.337268013738155 0.7283029347193491 6.27494678945848 0.6830894974968391 Q 6.212625565178803 0.6378760602743292 6.178409991064472 0.5645569728864752 Q 6.14419441695014 0.49123788549862124 6.14419441695014 0.37881528483724525 Q 6.14419441695014 0.2517288666982984 6.178409991064472 0.16741191620226625 Q 6.212625565178803 0.08309496570623431 6.290832591725848 0.041547482853117046 Q 6.369039618272892 -2.220446049250313e-16 6.498570005991434 -2.220446049250313e-16 Q 6.667203906983498 -2.220446049250313e-16 6.7588527662183155 0.08431695049603172 Q 6.850501625453133 0.16863390099206388 6.850501625453133 0.32260398450655714 L 6.850501625453133 0.4814620071802408 Q 6.813842081759206 0.4814620071802408 6.775960553275482 0.4814620071802408 Q 6.738079024791757 0.4814620071802408 6.698975511518235 0.4814620071802408 L 6.698975511518235 0.35926352820048413 Q 6.698975511518235 0.24195298837991785 6.648874135136535 0.1820757336798371 Q 6.598772758754834 0.12219847897975633 6.501013975571029 0.12219847897975633 Q 6.393479314068843 0.12219847897975633 6.345821907266738 0.18451970325943212 Q 6.298164500464633 0.24684092753910813 6.298164500464633 0.37392734567805497 Q 6.298164500464633 0.4692421592822651 6.334824044158561 0.5242314748231556 Q 6.371483587852487 0.5792207903640461 6.4301388577627705 0.6097704101089853 Q 6.488794127673054 0.6403200298539243 6.554781306322122 0.6647597256498756 Q 6.664759937403903 0.7063072085029929 6.7331910856325665 0.7515206457255029 Q 6.801622233861231 0.7967340829480128 6.833393838395967 0.8676092007562717 Q 6.865165442930704 0.9384843185645305 6.865165442930704 1.0655707367034775 Q 6.865165442930704 1.2146528810587804 6.817508036128599 1.3014138011344076 Q 6.769850629326494 1.3881747212100348 6.685533678830462 1.4260562496937594 Q 6.60121672833443 1.4639377781774838 6.491238097252649 1.4639377781774838 M 7.226930221247805 1.446829991120318 L 7.226930221247805 0.11242260066137577 L 6.984977232867887 0.11242260066137577 L 6.984977232867887 0.002443969579594807 L 7.627741232301407 0.002443969579594807 L 7.627741232301407 0.11242260066137577 L 7.3809003047622985 0.11242260066137577 L 7.3809003047622985 1.446829991120318 L 7.226930221247805 1.446829991120318" fill="#212121" fill-rule="nonzero"></path></g><g><path d=" M 0.05195584881286657 2.966659072779807 L 0.05195584881286657 2.4792637291543445 L 0.10391169762573314 2.4792637291543445 L 0.10391169762573314 2.966659072779807 L 0.05195584881286657 2.966659072779807 M 0.19997911872248994 2.966659072779807 L 0.19997911872248994 2.558434546392998 L 0.2420386153805248 2.558434546392998 L 0.24863618348374594 2.6021434350768384 Q 0.2552337515869671 2.577402554689759 0.2791499359611438 2.5642074184833166 Q 0.30306612033532043 2.5510122822768744 0.3286316967353024 2.5510122822768744 Q 0.37234058541914256 2.5510122822768744 0.3925456377352573 2.5662691585155732 Q 0.4127506900513721 2.581526034754272 0.4185235621416906 2.6058545671349003 Q 0.42429643423200913 2.6301830995155284 0.42429643423200913 2.6590474599671206 L 0.42429643423200913 2.966659072779807 L 0.3731652814320452 2.966659072779807 L 0.3731652814320452 2.6664697240832447 Q 0.3731652814320452 2.651625195850997 0.37234058541914256 2.637605363631652 Q 0.3715158894062399 2.6235855314123073 0.3661553653223727 2.6124521352381214 Q 0.3607948412385055 2.601318739063936 0.34842440104496586 2.5947211709607148 Q 0.3360539608514262 2.588123602857493 0.3121377764772495 2.588123602857493 Q 0.2915203761546834 2.588123602857493 0.27873758795469245 2.5959582149800684 Q 0.2659547997547015 2.6037928271026436 0.2597695796579316 2.6141015272639265 Q 0.2535843595611618 2.62441022742521 0.2511102715224539 2.6334818835671387 L 0.2511102715224539 2.966659072779807 L 0.19997911872248994 2.966659072779807 M 0.5970662220991124 2.973256640883028 Q 0.5665524696217146 2.973256640883028 0.5467597653120512 2.965422028760453 Q 0.5269670610023877 2.9575874166378777 0.515833664828202 2.9431552364120814 Q 0.5047002686540163 2.9287230561862856 0.500576788589503 2.906868611844365 Q 0.49645330852498987 2.885014167502445 0.49645330852498987 2.856974503063755 L 0.49645330852498987 2.653274587876802 Q 0.49645330852498987 2.631007795528431 0.5009891365959545 2.6124521352381214 Q 0.505524964666919 2.5938964749478117 0.5162460128346533 2.5802889907349185 Q 0.5269670610023877 2.5666815065220248 0.5451103732862459 2.5588468943994496 Q 0.563253685570104 2.5510122822768744 0.5912933500087939 2.5510122822768744 Q 0.6242811905248997 2.5510122822768744 0.6428368508152091 2.5609086344317062 Q 0.6613925111055187 2.5708049865865377 0.6696394712345451 2.584824818805883 L 0.6696394712345451 2.4471005846511416 L 0.7207706240345091 2.4471005846511416 L 0.7207706240345091 2.966659072779807 L 0.6853086954796954 2.966659072779807 L 0.6803605194022795 2.9278983601733826 Q 0.6754123433248636 2.938619408341117 0.6659283391764832 2.9489281085024 Q 0.6564443350281028 2.9592368086636833 0.6403627627765013 2.9662467247733555 Q 0.6242811905248997 2.973256640883028 0.5970662220991124 2.973256640883028 M 0.6061378782410416 2.941918192392728 Q 0.6300540626152182 2.941918192392728 0.6432491988216605 2.93325888425725 Q 0.6564443350281028 2.9245995761217722 0.66180485911197 2.910579743902427 Q 0.6671653831958372 2.8965599116830822 0.6684024272151912 2.879653643418578 Q 0.6696394712345451 2.8627473751540737 0.6696394712345451 2.8462534548960208 L 0.6696394712345451 2.6227608353994043 Q 0.6671653831958372 2.6153385712832806 0.6609801630990674 2.606266915141352 Q 0.6547949430022975 2.5971952589994225 0.6424245028087578 2.5905976908962014 Q 0.6300540626152182 2.5840001227929803 0.6086119662797495 2.5840001227929803 Q 0.5846957819055728 2.5840001227929803 0.5723253417120331 2.5905976908962014 Q 0.5599549015184935 2.5971952589994225 0.5545943774346263 2.608328655173608 Q 0.549233853350759 2.619462051347794 0.5484091573378564 2.6334818835671387 Q 0.5475844613249539 2.647501715786484 0.5475844613249539 2.6623462440187313 L 0.5475844613249539 2.8635720711669763 Q 0.5475844613249539 2.88336477547664 0.5500585493636617 2.901508087760498 Q 0.5525326374023697 2.9196514000443563 0.5649030775959093 2.930784796218542 Q 0.577273517789449 2.941918192392728 0.6061378782410416 2.941918192392728 M 0.8085926957366396 2.966659072779807 L 0.8085926957366396 2.558434546392998 L 0.8514768884075771 2.558434546392998 L 0.8572497604978956 2.6021434350768384 Q 0.8663214166398246 2.5790519467155644 0.8869388169623907 2.5691555945607325 Q 0.9075562172849568 2.5592592424059006 0.928173617607523 2.556785154367193 Q 0.951265105968797 2.551836978289777 0.9727072023042658 2.5559604583542903 L 0.9727072023042658 2.59637056298652 Q 0.9694084182526552 2.5955458669736173 0.9611614581236287 2.5947211709607148 Q 0.9529144979946023 2.5938964749478117 0.9434304938462219 2.5938964749478117 Q 0.9339464896978414 2.5938964749478117 0.9256995295688151 2.5971952589994225 Q 0.8976598651301251 2.6004940430510333 0.8786918568333644 2.6174003113155373 Q 0.8597238485366036 2.6343065795800413 0.8597238485366036 2.663170940031634 L 0.8597238485366036 2.966659072779807 L 0.8085926957366396 2.966659072779807 M 1.1240312696835 2.9740813368959307 Q 1.0827964690383678 2.9740813368959307 1.0572308926383858 2.9645973327475503 Q 1.0316653162384037 2.95511332859917 1.0201195720577667 2.929547752199188 Q 1.00857382787713 2.903982175799206 1.00857382787713 2.85532511103795 L 1.00857382787713 2.651625195850997 Q 1.00857382787713 2.5938964749478117 1.034551752283563 2.5724543786123433 Q 1.0605296766899963 2.5510122822768744 1.1207324856318894 2.5510122822768744 Q 1.1792859025479772 2.5510122822768744 1.2052638269544105 2.5724543786123433 Q 1.2312417513608436 2.5938964749478117 1.2312417513608436 2.651625195850997 L 1.2312417513608436 2.7571862855025353 L 1.0597049806770937 2.7571862855025353 L 1.0597049806770937 2.8726437273089056 Q 1.0597049806770937 2.9122291359282326 1.0720754208706333 2.9274860121669315 Q 1.084445861064173 2.9427428884056304 1.1223818776576946 2.9427428884056304 Q 1.1570191101996057 2.9427428884056304 1.1685648543802427 2.9278983601733826 Q 1.1801105985608797 2.913053831941135 1.1801105985608797 2.8726437273089056 L 1.1801105985608797 2.8198631824831364 L 1.2312417513608436 2.8198631824831364 L 1.2312417513608436 2.8545004150250475 Q 1.2312417513608436 2.9023327837734008 1.2196960071802065 2.928310708179834 Q 1.2081502629995697 2.9542886325862674 1.1846464266318444 2.9641849847410993 Q 1.1611425902641188 2.9740813368959307 1.1240312696835 2.9740813368959307 M 1.0597049806770937 2.730796013089651 L 1.1801105985608797 2.730796013089651 L 1.1801105985608797 2.6499758038251917 Q 1.1801105985608797 2.6153385712832806 1.1685648543802427 2.5996693470381302 Q 1.1570191101996057 2.5840001227929803 1.1207324856318894 2.5840001227929803 Q 1.084445861064173 2.5840001227929803 1.0720754208706333 2.5996693470381302 Q 1.0597049806770937 2.6153385712832806 1.0597049806770937 2.6499758038251917 L 1.0597049806770937 2.730796013089651 M 1.5586315718735917 2.9724319448701255 Q 1.5140979871768487 2.9724319448701255 1.4893571067897695 2.96129854869594 Q 1.4646162264026903 2.950165152521754 1.4547198742478584 2.9258366201411263 Q 1.4448235220930268 2.901508087760498 1.4448235220930268 2.8610979831282686 L 1.4448235220930268 2.825636054573455 L 1.4967793709058934 2.825636054573455 L 1.4967793709058934 2.8726437273089056 Q 1.4967793709058934 2.91140443991533 1.5099745071123356 2.9262489681475774 Q 1.523169643318778 2.941093496379825 1.5578068758606889 2.941093496379825 Q 1.5883206283380868 2.941093496379825 1.6027528085638831 2.9262489681475774 Q 1.6171849887896794 2.91140443991533 1.6171849887896794 2.8759425113605164 L 1.6171849887896794 2.8528510229992423 Q 1.6171849887896794 2.833883014702481 1.611412116699361 2.820275530489588 Q 1.6056392446090424 2.806668046276694 1.5895576723574407 2.795122302096057 Q 1.5734761001058393 2.78357655791542 1.5446117396542467 2.772030813734783 Q 1.5173967712284595 2.7613097655670487 1.4967793709058934 2.748939325373509 Q 1.4761619705833273 2.7365688851799694 1.4642038783962388 2.7176008768832087 Q 1.4522457862091505 2.6986328685864476 1.4522457862091505 2.6689438121219524 L 1.4522457862091505 2.644202931734873 Q 1.4522457862091505 2.6004940430510333 1.4773990146026812 2.576165510670405 Q 1.5025522429962117 2.551836978289777 1.5627550519381048 2.551836978289777 Q 1.6023404605574316 2.551836978289777 1.6258442969251572 2.5625580264575114 Q 1.6493481332928825 2.573279074625246 1.660481529467068 2.5971952589994225 Q 1.6716149256412538 2.621111443373599 1.6716149256412538 2.6590474599671206 L 1.6716149256412538 2.6936846925090316 L 1.6213084688541926 2.6936846925090316 L 1.6213084688541926 2.654099283889705 Q 1.6213084688541926 2.612864483244573 1.6072886366348476 2.597607607005874 Q 1.5932688044155028 2.5823507307671747 1.5627550519381048 2.5823507307671747 Q 1.5281178193961937 2.5823507307671747 1.5161597272091054 2.5988446510252277 Q 1.504201635022017 2.6153385712832806 1.504201635022017 2.64007945167036 L 1.504201635022017 2.6623462440187313 Q 1.504201635022017 2.6854377323800054 1.5145103351833002 2.700282260612253 Q 1.5248190353445832 2.7151267888445005 1.5437870436413441 2.7250231409993324 Q 1.5627550519381048 2.7349194931541643 1.5891453243509894 2.7456405413218983 Q 1.613061508725166 2.75553689347673 1.6316171690154757 2.7666702896509157 Q 1.6501728293057851 2.7778036858251016 1.6608938774735194 2.7967716941218623 Q 1.6716149256412538 2.815739702418623 1.6716149256412538 2.848727542934729 L 1.6716149256412538 2.8676955512314897 Q 1.6716149256412538 2.9006833917475956 1.6613062254799709 2.9241872281153207 Q 1.6509975253186877 2.9476910644830463 1.6262566449316085 2.960061504676586 Q 1.601515764544529 2.9724319448701255 1.5586315718735917 2.9724319448701255 M 1.8353046010108272 2.9674837687927096 Q 1.817161288726969 2.9674837687927096 1.8023167604947214 2.9633602887281962 Q 1.7874722322624739 2.9592368086636833 1.7767511840947394 2.949752804515303 Q 1.766030135927005 2.9402688003669226 1.7602572638366865 2.9250119241282233 Q 1.754484391746368 2.9097550478895244 1.754484391746368 2.8866635595282504 L 1.754484391746368 2.5905976908962014 L 1.7181977671786517 2.5905976908962014 L 1.7181977671786517 2.5642074184833166 L 1.7577831757979787 2.558434546392998 L 1.7668548319399078 2.481737817193052 L 1.805615544546332 2.481737817193052 L 1.805615544546332 2.558434546392998 L 1.8938580179269149 2.558434546392998 L 1.8938580179269149 2.5905976908962014 L 1.805615544546332 2.5905976908962014 L 1.805615544546332 2.8775919033863215 Q 1.805615544546332 2.9006833917475956 1.8138625046753585 2.9163526159927455 Q 1.822109464804385 2.932021840237896 1.8501491292430747 2.932021840237896 Q 1.8616948734237118 2.932021840237896 1.8748900096301542 2.930784796218542 Q 1.8880851458365964 2.929547752199188 1.8938580179269149 2.929547752199188 L 1.8938580179269149 2.9625355927152937 Q 1.8872604498236938 2.9625355927152937 1.8707665295656408 2.965009680754002 Q 1.8542726093075879 2.9674837687927096 1.8353046010108272 2.9674837687927096 M 1.9610743671308808 3.063148506289416 Q 1.9437557508599252 3.063148506289416 1.9301482666470318 3.0606744182507084 Q 1.916540782434138 3.0582003302120007 1.9091185183180144 3.056550938186195 L 1.9091185183180144 3.0260371857087973 Q 1.9115926063567223 3.0276865777346025 1.9202519144922 3.029335969760408 Q 1.9289112226276777 3.0309853617862133 1.9404569668083147 3.0309853617862133 Q 1.9528274070018545 3.0309853617862133 1.9680842832405534 3.0268618817217 Q 1.9833411594792523 3.022738401657187 1.993237511634084 3.003770393360426 Q 1.9981856877114998 2.9955234332313996 2.0043709078082697 2.984802385063665 Q 2.0105561279050397 2.9740813368959307 2.007257343853429 2.960061504676586 L 1.9132419983825275 2.558434546392998 L 1.9660225432082967 2.558434546392998 L 2.0410698803824374 2.9147032239669404 L 2.040245184369535 2.9147032239669404 L 2.1128184335049673 2.558434546392998 L 2.161475498266223 2.558434546392998 L 2.0724083288727377 2.9509898485346566 Q 2.060037888679198 3.007893873424939 2.0336476162663137 3.0355211898571777 Q 2.007257343853429 3.063148506289416 1.9610743671308808 3.063148506289416 M 2.2113639694764324 2.966659072779807 L 2.2113639694764324 2.558434546392998 L 2.2542481621473702 2.558434546392998 L 2.2600210342376887 2.6021434350768384 Q 2.2690926903796176 2.5790519467155644 2.289710090702184 2.5691555945607325 Q 2.3103274910247498 2.5592592424059006 2.330944891347316 2.556785154367193 Q 2.35403637970859 2.551836978289777 2.3754784760440586 2.5559604583542903 L 2.3754784760440586 2.59637056298652 Q 2.3721796919924483 2.5955458669736173 2.3639327318634216 2.5947211709607148 Q 2.3556857717343953 2.5938964749478117 2.346201767586015 2.5938964749478117 Q 2.3367177634376346 2.5938964749478117 2.328470803308608 2.5971952589994225 Q 2.3004311388699183 2.6004940430510333 2.281463130573157 2.6174003113155373 Q 2.2624951222763965 2.6343065795800413 2.2624951222763965 2.663170940031634 L 2.2624951222763965 2.966659072779807 L 2.2113639694764324 2.966659072779807 M 2.587830048378089 2.966659072779807 L 2.485567742778161 2.7299713170767483 L 2.5903041364167967 2.558434546392998 L 2.6414352892167607 2.558434546392998 L 2.5358741995652223 2.7299713170767483 L 2.6422599852296633 2.966659072779807 L 2.587830048378089 2.966659072779807 M 2.4212414537717546 2.966659072779807 L 2.4212414537717546 2.443801800599531 L 2.471547910558816 2.443801800599531 L 2.471547910558816 2.966659072779807 L 2.4212414537717546 2.966659072779807 M 2.7919483518254937 2.9740813368959307 Q 2.7507135511803615 2.9740813368959307 2.7251479747803797 2.9645973327475503 Q 2.699582398380398 2.95511332859917 2.688036654199761 2.929547752199188 Q 2.676490910019124 2.903982175799206 2.676490910019124 2.85532511103795 L 2.676490910019124 2.651625195850997 Q 2.676490910019124 2.5938964749478117 2.702468834425557 2.5724543786123433 Q 2.7284467588319905 2.5510122822768744 2.7886495677738834 2.5510122822768744 Q 2.847202984689971 2.5510122822768744 2.8731809090964044 2.5724543786123433 Q 2.8991588335028378 2.5938964749478117 2.8991588335028378 2.651625195850997 L 2.8991588335028378 2.7571862855025353 L 2.727622062819088 2.7571862855025353 L 2.727622062819088 2.8726437273089056 Q 2.727622062819088 2.9122291359282326 2.7399925030126275 2.9274860121669315 Q 2.752362943206167 2.9427428884056304 2.7902989597996886 2.9427428884056304 Q 2.8249361923415997 2.9427428884056304 2.8364819365222367 2.9278983601733826 Q 2.8480276807028737 2.913053831941135 2.8480276807028737 2.8726437273089056 L 2.8480276807028737 2.8198631824831364 L 2.8991588335028378 2.8198631824831364 L 2.8991588335028378 2.8545004150250475 Q 2.8991588335028378 2.9023327837734008 2.8876130893222007 2.928310708179834 Q 2.8760673451415637 2.9542886325862674 2.852563508773838 2.9641849847410993 Q 2.829059672406113 2.9740813368959307 2.7919483518254937 2.9740813368959307 M 2.727622062819088 2.730796013089651 L 2.8480276807028737 2.730796013089651 L 2.8480276807028737 2.6499758038251917 Q 2.8480276807028737 2.6153385712832806 2.8364819365222367 2.5996693470381302 Q 2.8249361923415997 2.5840001227929803 2.7886495677738834 2.5840001227929803 Q 2.752362943206167 2.5840001227929803 2.7399925030126275 2.5996693470381302 Q 2.727622062819088 2.6153385712832806 2.727622062819088 2.6499758038251917 L 2.727622062819088 2.730796013089651 M 3.1201628683511444 2.767082637657367 L 3.1201628683511444 2.730796013089651 L 3.2875761589703814 2.730796013089651 L 3.2875761589703814 2.767082637657367 L 3.1201628683511444 2.767082637657367 M 3.530872355233863 2.966659072779807 L 3.530872355233863 2.4792637291543445 L 3.5828282040467294 2.4792637291543445 L 3.5828282040467294 2.966659072779807 L 3.530872355233863 2.966659072779807 M 3.678895625143486 2.966659072779807 L 3.678895625143486 2.558434546392998 L 3.7209551218015213 2.558434546392998 L 3.7275526899047424 2.6021434350768384 Q 3.7341502580079635 2.577402554689759 3.75806644238214 2.5642074184833166 Q 3.781982626756317 2.5510122822768744 3.8075482031562986 2.5510122822768744 Q 3.851257091840139 2.5510122822768744 3.871462144156254 2.5662691585155732 Q 3.8916671964723686 2.581526034754272 3.897440068562687 2.6058545671349003 Q 3.9032129406530056 2.6301830995155284 3.9032129406530056 2.6590474599671206 L 3.9032129406530056 2.966659072779807 L 3.8520817878530416 2.966659072779807 L 3.8520817878530416 2.6664697240832447 Q 3.8520817878530416 2.651625195850997 3.851257091840139 2.637605363631652 Q 3.8504323958272364 2.6235855314123073 3.845071871743369 2.6124521352381214 Q 3.839711347659502 2.601318739063936 3.8273409074659623 2.5947211709607148 Q 3.8149704672724227 2.588123602857493 3.791054282898246 2.588123602857493 Q 3.7704368825756798 2.588123602857493 3.7576540943756886 2.5959582149800684 Q 3.744871306175698 2.6037928271026436 3.738686086078928 2.6141015272639265 Q 3.7325008659821584 2.62441022742521 3.73002677794345 2.6334818835671387 L 3.73002677794345 2.966659072779807 L 3.678895625143486 2.966659072779807 M 4.075982728520109 2.973256640883028 Q 4.045468976042711 2.973256640883028 4.025676271733047 2.965422028760453 Q 4.005883567423384 2.9575874166378777 3.9947501712491986 2.9431552364120814 Q 3.9836167750750127 2.9287230561862856 3.9794932950104993 2.906868611844365 Q 3.9753698149459864 2.885014167502445 3.9753698149459864 2.856974503063755 L 3.9753698149459864 2.653274587876802 Q 3.9753698149459864 2.631007795528431 3.979905643016951 2.6124521352381214 Q 3.9844414710879152 2.5938964749478117 3.9951625192556497 2.5802889907349185 Q 4.005883567423384 2.5666815065220248 4.024026879707242 2.5588468943994496 Q 4.042170191991101 2.5510122822768744 4.07020985642979 2.5510122822768744 Q 4.103197696945896 2.5510122822768744 4.121753357236206 2.5609086344317062 Q 4.140309017526515 2.5708049865865377 4.148555977655541 2.584824818805883 L 4.148555977655541 2.4471005846511416 L 4.199687130455505 2.4471005846511416 L 4.199687130455505 2.966659072779807 L 4.164225201900692 2.966659072779807 L 4.159277025823276 2.9278983601733826 Q 4.15432884974586 2.938619408341117 4.14484484559748 2.9489281085024 Q 4.135360841449099 2.9592368086636833 4.119279269197498 2.9662467247733555 Q 4.103197696945896 2.973256640883028 4.075982728520109 2.973256640883028 M 4.085054384662038 2.941918192392728 Q 4.108970569036215 2.941918192392728 4.122165705242657 2.93325888425725 Q 4.135360841449099 2.9245995761217722 4.140721365532967 2.910579743902427 Q 4.146081889616833 2.8965599116830822 4.147318933636187 2.879653643418578 Q 4.148555977655541 2.8627473751540737 4.148555977655541 2.8462534548960208 L 4.148555977655541 2.6227608353994043 Q 4.146081889616833 2.6153385712832806 4.139896669520064 2.606266915141352 Q 4.133711449423294 2.5971952589994225 4.121341009229754 2.5905976908962014 Q 4.108970569036215 2.5840001227929803 4.087528472700746 2.5840001227929803 Q 4.063612288326569 2.5840001227929803 4.05124184813303 2.5905976908962014 Q 4.03887140793949 2.5971952589994225 4.033510883855623 2.608328655173608 Q 4.028150359771756 2.619462051347794 4.027325663758853 2.6334818835671387 Q 4.0265009677459505 2.647501715786484 4.0265009677459505 2.6623462440187313 L 4.0265009677459505 2.8635720711669763 Q 4.0265009677459505 2.88336477547664 4.028975055784658 2.901508087760498 Q 4.031449143823366 2.9196514000443563 4.043819584016906 2.930784796218542 Q 4.056190024210445 2.941918192392728 4.085054384662038 2.941918192392728 M 4.2875092021576355 2.966659072779807 L 4.2875092021576355 2.558434546392998 L 4.330393394828573 2.558434546392998 L 4.336166266918892 2.6021434350768384 Q 4.345237923060821 2.5790519467155644 4.3658553233833866 2.5691555945607325 Q 4.386472723705953 2.5592592424059006 4.407090124028519 2.556785154367193 Q 4.430181612389793 2.551836978289777 4.451623708725262 2.5559604583542903 L 4.451623708725262 2.59637056298652 Q 4.448324924673651 2.5955458669736173 4.440077964544625 2.5947211709607148 Q 4.431831004415598 2.5938964749478117 4.422347000267218 2.5938964749478117 Q 4.412862996118838 2.5938964749478117 4.404616035989811 2.5971952589994225 Q 4.3765763715511214 2.6004940430510333 4.357608363254361 2.6174003113155373 Q 4.3386403549576 2.6343065795800413 4.3386403549576 2.663170940031634 L 4.3386403549576 2.966659072779807 L 4.2875092021576355 2.966659072779807 M 4.602947776104496 2.9740813368959307 Q 4.561712975459364 2.9740813368959307 4.536147399059382 2.9645973327475503 Q 4.510581822659399 2.95511332859917 4.499036078478762 2.929547752199188 Q 4.487490334298125 2.903982175799206 4.487490334298125 2.85532511103795 L 4.487490334298125 2.651625195850997 Q 4.487490334298125 2.5938964749478117 4.513468258704559 2.5724543786123433 Q 4.539446183110992 2.5510122822768744 4.599648992052885 2.5510122822768744 Q 4.658202408968973 2.5510122822768744 4.684180333375406 2.5724543786123433 Q 4.710158257781839 2.5938964749478117 4.710158257781839 2.651625195850997 L 4.710158257781839 2.7571862855025353 L 4.53862148709809 2.7571862855025353 L 4.53862148709809 2.8726437273089056 Q 4.53862148709809 2.9122291359282326 4.550991927291629 2.9274860121669315 Q 4.563362367485169 2.9427428884056304 4.6012983840786905 2.9427428884056304 Q 4.635935616620602 2.9427428884056304 4.647481360801239 2.9278983601733826 Q 4.659027104981876 2.913053831941135 4.659027104981876 2.8726437273089056 L 4.659027104981876 2.8198631824831364 L 4.710158257781839 2.8198631824831364 L 4.710158257781839 2.8545004150250475 Q 4.710158257781839 2.9023327837734008 4.698612513601202 2.928310708179834 Q 4.687066769420565 2.9542886325862674 4.66356293305284 2.9641849847410993 Q 4.640059096685115 2.9740813368959307 4.602947776104496 2.9740813368959307 M 4.53862148709809 2.730796013089651 L 4.659027104981876 2.730796013089651 L 4.659027104981876 2.6499758038251917 Q 4.659027104981876 2.6153385712832806 4.647481360801239 2.5996693470381302 Q 4.635935616620602 2.5840001227929803 4.599648992052885 2.5840001227929803 Q 4.563362367485169 2.5840001227929803 4.550991927291629 2.5996693470381302 Q 4.53862148709809 2.6153385712832806 4.53862148709809 2.6499758038251917 L 4.53862148709809 2.730796013089651 M 4.938584556746269 2.966659072779807 L 4.938584556746269 2.558434546392998 L 4.981468749417207 2.558434546392998 L 4.9872416215075255 2.6021434350768384 Q 4.996313277649454 2.5790519467155644 5.01693067797202 2.5691555945607325 Q 5.037548078294587 2.5592592424059006 5.058165478617153 2.556785154367193 Q 5.081256966978427 2.551836978289777 5.102699063313896 2.5559604583542903 L 5.102699063313896 2.59637056298652 Q 5.099400279262285 2.5955458669736173 5.091153319133259 2.5947211709607148 Q 5.082906359004232 2.5938964749478117 5.073422354855851 2.5938964749478117 Q 5.063938350707471 2.5938964749478117 5.055691390578445 2.5971952589994225 Q 5.027651726139755 2.6004940430510333 5.008683717842994 2.6174003113155373 Q 4.989715709546234 2.6343065795800413 4.989715709546234 2.663170940031634 L 4.989715709546234 2.966659072779807 L 4.938584556746269 2.966659072779807 M 5.250724346641519 2.9724319448701255 Q 5.212788330047998 2.9724319448701255 5.187635101654466 2.9621232447088426 Q 5.162481873260936 2.951814544547559 5.150523781073848 2.925424272134675 Q 5.138565688886759 2.89903399972179 5.138565688886759 2.8528510229992423 L 5.138565688886759 2.6623462440187313 Q 5.138565688886759 2.602968131089741 5.164543613293192 2.577402554689759 Q 5.190521537699626 2.551836978289777 5.250724346641519 2.551836978289777 Q 5.310927155583412 2.551836978289777 5.336905079989846 2.576577858676856 Q 5.362883004396279 2.601318739063936 5.362883004396279 2.6623462440187313 L 5.362883004396279 2.8528510229992423 Q 5.362883004396279 2.89903399972179 5.351337260215642 2.9250119241282233 Q 5.339791516035005 2.9509898485346566 5.315050635647925 2.961710896702391 Q 5.290309755260846 2.9724319448701255 5.250724346641519 2.9724319448701255 M 5.250724346641519 2.9402688003669226 Q 5.283712187157625 2.9402688003669226 5.297732019376969 2.9237748801088697 Q 5.3117518515963145 2.9072809598508167 5.3117518515963145 2.8635720711669763 L 5.3117518515963145 2.6598721559800236 Q 5.3117518515963145 2.619462051347794 5.298556715389872 2.601731087070387 Q 5.28536157918343 2.5840001227929803 5.250724346641519 2.5840001227929803 Q 5.218561202138316 2.5840001227929803 5.20412902191252 2.6009063910574843 Q 5.1896968416867235 2.617812659321989 5.1896968416867235 2.6598721559800236 L 5.1896968416867235 2.8635720711669763 Q 5.1896968416867235 2.906456263837914 5.20412902191252 2.923362532102418 Q 5.218561202138316 2.9402688003669226 5.250724346641519 2.9402688003669226 M 0.10061291357412257 3.833414582340486 L 0.009071656141929084 3.425190055953677 L 0.058553416916087724 3.425190055953677 L 0.13030197003861776 3.768263597321177 L 0.2004011311353425 3.425190055953677 L 0.2490581958965985 3.425190055953677 L 0.32328083705783645 3.768263597321177 L 0.3900812141029506 3.425190055953677 L 0.4387382788642066 3.425190055953677 L 0.3504958054836237 3.833414582340486 L 0.29194238856753596 3.833414582340486 L 0.22431731550951917 3.5266276655407025 L 0.15916633049021028 3.833414582340486 L 0.10061291357412257 3.833414582340486 M 0.5504898234993154 3.833414582340486 L 0.4589485660671219 3.425190055953677 L 0.5084303268412805 3.425190055953677 L 0.5801788799638106 3.768263597321177 L 0.6502780410605353 3.425190055953677 L 0.6989351058217914 3.425190055953677 L 0.7731577469830293 3.768263597321177 L 0.8399581240281435 3.425190055953677 L 0.8886151887893994 3.425190055953677 L 0.8003727154088165 3.833414582340486 L 0.7418192984927288 3.833414582340486 L 0.674194225434712 3.5266276655407025 L 0.6090432404154031 3.833414582340486 L 0.5504898234993154 3.833414582340486 M 1.0003667334245083 3.833414582340486 L 0.9088254759923148 3.425190055953677 L 0.9583072367664734 3.425190055953677 L 1.0300557898890035 3.768263597321177 L 1.1001549509857282 3.425190055953677 L 1.148812015746984 3.425190055953677 L 1.2230346569082222 3.768263597321177 L 1.2898350339533362 3.425190055953677 L 1.3384920987145923 3.425190055953677 L 1.2502496253340094 3.833414582340486 L 1.1916962084179217 3.833414582340486 L 1.1240711353599049 3.5266276655407025 L 1.058920150340596 3.833414582340486 L 1.0003667334245083 3.833414582340486 M 1.4222039789110112 3.8391874544308044 Q 1.4090088427045688 3.8391874544308044 1.3999371865626398 3.830115798288875 Q 1.3908655304207107 3.8210441421469463 1.3908655304207107 3.8086737019534067 Q 1.3908655304207107 3.796303261759867 1.3999371865626398 3.787231605617938 Q 1.4090088427045688 3.778159949476009 1.4222039789110112 3.778159949476009 Q 1.4353991151174534 3.778159949476009 1.444883119265834 3.787231605617938 Q 1.4543671234142144 3.796303261759867 1.4543671234142144 3.8086737019534067 Q 1.4543671234142144 3.8210441421469463 1.444883119265834 3.830115798288875 Q 1.4353991151174534 3.8391874544308044 1.4222039789110112 3.8391874544308044 M 1.5974534923872232 3.833414582340486 L 1.5059122349550298 3.425190055953677 L 1.5553939957291885 3.425190055953677 L 1.6271425488517184 3.768263597321177 L 1.6972417099484431 3.425190055953677 L 1.7458987747096992 3.425190055953677 L 1.8201214158709371 3.768263597321177 L 1.8869217929160513 3.425190055953677 L 1.9355788576773074 3.425190055953677 L 1.8473363842967245 3.833414582340486 L 1.7887829673806368 3.833414582340486 L 1.7211578943226198 3.5266276655407025 L 1.656006909303311 3.833414582340486 L 1.5974534923872232 3.833414582340486 M 1.9904263774221338 3.833414582340486 L 1.9904263774221338 3.425190055953677 L 2.0407328342091953 3.425190055953677 L 2.0407328342091953 3.833414582340486 L 1.9904263774221338 3.833414582340486 M 2.0159919538221156 3.374883599166616 Q 2.003621513628576 3.374883599166616 1.9949622054930982 3.366224291031138 Q 1.9863028973576204 3.3575649828956604 1.9863028973576204 3.3460192387150234 Q 1.9863028973576204 3.3336487985214838 1.9949622054930982 3.3258141863989086 Q 2.003621513628576 3.3179795742763334 2.0159919538221156 3.3179795742763334 Q 2.0275376980027526 3.3179795742763334 2.036609354144682 3.3258141863989086 Q 2.0456810102866108 3.3336487985214838 2.0456810102866108 3.3460192387150234 Q 2.0456810102866108 3.3575649828956604 2.036609354144682 3.366224291031138 Q 2.0275376980027526 3.374883599166616 2.0159919538221156 3.374883599166616 M 2.1293812126586285 3.833414582340486 L 2.1293812126586285 3.3105573101602097 L 2.17968766944569 3.3105573101602097 L 2.17968766944569 3.833414582340486 L 2.1293812126586285 3.833414582340486 M 2.268336047895123 3.833414582340486 L 2.268336047895123 3.3105573101602097 L 2.3186425046821846 3.3105573101602097 L 2.3186425046821846 3.833414582340486 L 2.268336047895123 3.833414582340486 M 2.512851972783156 3.8408368464566096 Q 2.471617172138024 3.8408368464566096 2.446051595738042 3.8313528423082293 Q 2.4204860193380604 3.821868838159849 2.4089402751574234 3.796303261759867 Q 2.3973945309767863 3.770737685359885 2.3973945309767863 3.722080620598629 L 2.3973945309767863 3.518380705411676 Q 2.3973945309767863 3.460651984508491 2.4233724553832197 3.439209888173022 Q 2.449350379789653 3.4177677918375533 2.509553188731546 3.4177677918375533 Q 2.5681066056476336 3.4177677918375533 2.594084530054067 3.439209888173022 Q 2.6200624544605002 3.460651984508491 2.6200624544605002 3.518380705411676 L 2.6200624544605002 3.6239417950632142 L 2.44852568377675 3.6239417950632142 L 2.44852568377675 3.7393992368695845 Q 2.44852568377675 3.7789846454889116 2.46089612397029 3.7942415217276104 Q 2.4732665641638296 3.8094983979663093 2.511202580757351 3.8094983979663093 Q 2.545839813299262 3.8094983979663093 2.557385557479899 3.7946538697340615 Q 2.568931301660536 3.779809341501814 2.568931301660536 3.7393992368695845 L 2.568931301660536 3.6866186920438153 L 2.6200624544605002 3.6866186920438153 L 2.6200624544605002 3.7212559245857264 Q 2.6200624544605002 3.7690882933340797 2.608516710279863 3.795066217740513 Q 2.596970966099226 3.8210441421469463 2.5734671297315006 3.830940494301778 Q 2.5499632933637755 3.8408368464566096 2.512851972783156 3.8408368464566096 M 2.44852568377675 3.59755152265033 L 2.568931301660536 3.59755152265033 L 2.568931301660536 3.5167313133858706 Q 2.568931301660536 3.4820940808439595 2.557385557479899 3.466424856598809 Q 2.545839813299262 3.4507556323536592 2.509553188731546 3.4507556323536592 Q 2.4732665641638296 3.4507556323536592 2.46089612397029 3.466424856598809 Q 2.44852568377675 3.4820940808439595 2.44852568377675 3.5167313133858706 L 2.44852568377675 3.59755152265033 M 2.6946849604365877 3.9290793198371925 L 2.6946849604365877 3.425190055953677 L 2.7425173291849414 3.425190055953677 L 2.7441667212107466 3.4614766805213937 Q 2.7515889853268702 3.444158064250438 2.768082905584923 3.4317876240568985 Q 2.784576825842976 3.4194171838633585 2.8225128424364976 3.4194171838633585 Q 2.861273555042922 3.4194171838633585 2.881890955365488 3.432612320069801 Q 2.902508355688054 3.4458074562762433 2.9107553158170805 3.4688989446375174 Q 2.919002275946107 3.4919904329987914 2.919002275946107 3.522504185476189 L 2.919002275946107 3.723730012624434 Q 2.919002275946107 3.7575425491534427 2.911580011829983 3.7839328215663275 Q 2.9041577477138594 3.810323093979212 2.8835403473912935 3.824755274205008 Q 2.862922947068727 3.8391874544308044 2.8225128424364976 3.8391874544308044 Q 2.7911743939461973 3.8391874544308044 2.7726187336558876 3.8292911022759726 Q 2.7540630733655784 3.819394750121141 2.744991417223649 3.8045502218888934 L 2.744991417223649 3.9290793198371925 L 2.6946849604365877 3.9290793198371925 M 2.8068436181913476 3.807849005940504 Q 2.8299351065526217 3.807849005940504 2.8423055467461613 3.801251437837283 Q 2.854675986939701 3.7946538697340615 2.8604488590300194 3.783520473559876 Q 2.866221731120338 3.7723870773856905 2.8670464271332405 3.7587795931727968 Q 2.867871123146143 3.745172108959903 2.867871123146143 3.7295028847147527 L 2.867871123146143 3.5307511456052154 Q 2.867871123146143 3.5150819213600655 2.8670464271332405 3.5014744371471718 Q 2.866221731120338 3.487866952934278 2.8604488590300194 3.476321208753641 Q 2.854675986939701 3.464775464573004 2.8423055467461613 3.458177896469783 Q 2.8299351065526217 3.451580328366562 2.8068436181913476 3.451580328366562 Q 2.7837521298300736 3.451580328366562 2.771381689636534 3.459827288495588 Q 2.759011249442994 3.4680742486246148 2.7532383773526754 3.481681732837508 Q 2.747465505262357 3.4952892170504017 2.7466408092494543 3.510958441295552 Q 2.7458161132365517 3.5266276655407025 2.7458161132365517 3.5406474977600473 L 2.7458161132365517 3.735275756805071 Q 2.7458161132365517 3.755068461114735 2.7495272452946136 3.771974729379239 Q 2.7532383773526754 3.788880997643743 2.7660211655526665 3.7983650017921238 Q 2.7788039537526577 3.807849005940504 2.8068436181913476 3.807849005940504 M 3.0868198608997943 3.840012150443707 Q 3.0439356682288565 3.840012150443707 3.0233182679062907 3.824755274205008 Q 3.0027008675837243 3.8094983979663093 2.996927995493406 3.78475751757923 Q 2.9911551234030873 3.760016637192151 2.9911551234030873 3.731976972753461 L 2.9911551234030873 3.425190055953677 L 3.0422862762030514 3.425190055953677 L 3.0422862762030514 3.7253794046502398 Q 3.0422862762030514 3.743522716934098 3.044348016235308 3.7612536812115045 Q 3.0464097562675647 3.7789846454889116 3.059604892474007 3.790118041663097 Q 3.072800028680449 3.801251437837283 3.1033137811578473 3.801251437837283 Q 3.1247558774933157 3.801251437837283 3.1371263176868553 3.793829173721159 Q 3.149496757880395 3.7864069096050352 3.1560943259836165 3.7760982094437523 Q 3.1626918940868376 3.765789509282469 3.1643412861126428 3.7575425491534427 L 3.1643412861126428 3.425190055953677 L 3.215472438912607 3.425190055953677 L 3.215472438912607 3.833414582340486 L 3.1717635502287664 3.833414582340486 L 3.1676400701642535 3.788880997643743 Q 3.161042502061032 3.8086737019534067 3.140837449744917 3.8243429261985566 Q 3.120632397428803 3.840012150443707 3.0868198608997943 3.840012150443707 M 3.403067426199155 3.8391874544308044 Q 3.3585338415024126 3.8391874544308044 3.333792961115333 3.828054058256619 Q 3.3090520807282537 3.816920662082433 3.2991557285734223 3.7925921297018053 Q 3.2892593764185905 3.768263597321177 3.2892593764185905 3.7278534926889475 L 3.2892593764185905 3.692391564134134 L 3.341215225231457 3.692391564134134 L 3.341215225231457 3.7393992368695845 Q 3.341215225231457 3.778159949476009 3.3544103614378993 3.7930044777082563 Q 3.3676054976443415 3.807849005940504 3.4022427301862526 3.807849005940504 Q 3.4327564826636503 3.807849005940504 3.4471886628894466 3.7930044777082563 Q 3.461620843115243 3.778159949476009 3.461620843115243 3.7426980209211953 L 3.461620843115243 3.7196065325599212 Q 3.461620843115243 3.70063852426316 3.4558479710249244 3.687031040050267 Q 3.450075098934606 3.673423555837373 3.4339935266830044 3.661877811656736 Q 3.417911954431403 3.650332067476099 3.3890475939798104 3.638786323295462 Q 3.361832625554023 3.6280652751277276 3.341215225231457 3.615694834934188 Q 3.3205978249088908 3.6033243947406484 3.3086397327218027 3.584356386443887 Q 3.296681640534714 3.5653883781471265 3.296681640534714 3.5356993216826313 L 3.296681640534714 3.510958441295552 Q 3.296681640534714 3.4672495526117117 3.321834868928245 3.442921020231084 Q 3.3469880973217756 3.418592487850456 3.4071909062636685 3.418592487850456 Q 3.4467763148829955 3.418592487850456 3.4702801512507206 3.4293135360181903 Q 3.493783987618446 3.440034584185925 3.5049173837926317 3.4639507685601014 Q 3.5160507799668177 3.487866952934278 3.5160507799668177 3.5258029695278 L 3.5160507799668177 3.560440202069711 L 3.4657443231797562 3.560440202069711 L 3.4657443231797562 3.520854793450384 Q 3.4657443231797562 3.479619992805252 3.4517244909604115 3.464363116566553 Q 3.4377046587410662 3.449106240327854 3.4071909062636685 3.449106240327854 Q 3.3725536737217574 3.449106240327854 3.3605955815346693 3.4656001605859066 Q 3.3486374893475808 3.4820940808439595 3.3486374893475808 3.5068349612310388 L 3.3486374893475808 3.5291017535794102 Q 3.3486374893475808 3.5521932419406843 3.3589461895088637 3.567037770172932 Q 3.369254889670147 3.5818822984051795 3.388222897966908 3.5917786505600113 Q 3.4071909062636685 3.6016750027148428 3.433581178676553 3.612396050882577 Q 3.45749736305073 3.622292403037409 3.476053023341039 3.6334257992115946 Q 3.494608683631349 3.6445591953857805 3.5053297317990832 3.6635272036825413 Q 3.5160507799668177 3.682495211979302 3.5160507799668177 3.715483052495408 L 3.5160507799668177 3.7344510607921686 Q 3.5160507799668177 3.7674389013082745 3.5057420798055343 3.7909427376759997 Q 3.4954333796442514 3.8144465740437252 3.470692499257172 3.826817014237265 Q 3.445951618870093 3.8391874544308044 3.403067426199155 3.8391874544308044 M 3.6797404553363906 3.8342392783533885 Q 3.6615971430525325 3.8342392783533885 3.646752614820285 3.830115798288875 Q 3.6319080865880373 3.8259923182243623 3.6211870384203033 3.816508314075982 Q 3.610465990252569 3.807024309927601 3.6046931181622504 3.7917674336889022 Q 3.598920246071932 3.7765105574502034 3.598920246071932 3.7534190690889293 L 3.598920246071932 3.4573532004568803 L 3.5626336215042156 3.4573532004568803 L 3.5626336215042156 3.4309629280439955 L 3.602219030123542 3.425190055953677 L 3.6112906862654715 3.348493326753731 L 3.6500513988718954 3.348493326753731 L 3.6500513988718954 3.425190055953677 L 3.7382938722524788 3.425190055953677 L 3.7382938722524788 3.4573532004568803 L 3.6500513988718954 3.4573532004568803 L 3.6500513988718954 3.7443474129470005 Q 3.6500513988718954 3.7674389013082745 3.658298359000922 3.7831081255534245 Q 3.6665453191299484 3.798777349798575 3.6945849835686384 3.798777349798575 Q 3.7061307277492754 3.798777349798575 3.7193258639557176 3.7975403057792207 Q 3.7325210001621603 3.796303261759867 3.7382938722524788 3.796303261759867 L 3.7382938722524788 3.8292911022759726 Q 3.7316963041492572 3.8292911022759726 3.7152023838912047 3.8317651903146808 Q 3.6987084636331518 3.8342392783533885 3.6797404553363906 3.8342392783533885 M 3.8211794457015946 3.8391874544308044 Q 3.8079843094951524 3.8391874544308044 3.7989126533532236 3.830115798288875 Q 3.7898409972112943 3.8210441421469463 3.7898409972112943 3.8086737019534067 Q 3.7898409972112943 3.796303261759867 3.7989126533532236 3.787231605617938 Q 3.8079843094951524 3.778159949476009 3.8211794457015946 3.778159949476009 Q 3.8343745819080373 3.778159949476009 3.8438585860564176 3.787231605617938 Q 3.853342590204798 3.796303261759867 3.853342590204798 3.8086737019534067 Q 3.853342590204798 3.8210441421469463 3.8438585860564176 3.830115798288875 Q 3.8343745819080373 3.8391874544308044 3.8211794457015946 3.8391874544308044 M 3.9395249342875243 3.833414582340486 L 3.9395249342875243 3.425190055953677 L 3.9815844309455595 3.425190055953677 L 3.9881819990487806 3.4688989446375174 Q 3.9947795671520017 3.444158064250438 4.018695751526178 3.4309629280439955 Q 4.042611935900355 3.4177677918375533 4.068177512300337 3.4177677918375533 Q 4.111886400984177 3.4177677918375533 4.1320914533002915 3.433024668076252 Q 4.152296505616406 3.448281544314951 4.158069377706725 3.472610076695579 Q 4.163842249797043 3.4969386090762073 4.163842249797043 3.5258029695278 L 4.163842249797043 3.833414582340486 L 4.11271109699708 3.833414582340486 L 4.11271109699708 3.5332252336439236 Q 4.11271109699708 3.518380705411676 4.111886400984177 3.504360873192331 Q 4.1110617049712745 3.490341040972986 4.105701180887407 3.4792076447988003 Q 4.10034065680354 3.4680742486246148 4.0879702166100005 3.4614766805213937 Q 4.07559977641646 3.4548791124181726 4.051683592042284 3.4548791124181726 Q 4.031066191719718 3.4548791124181726 4.018283403519727 3.4627137245407473 Q 4.005500615319736 3.4705483366633225 3.999315395222966 3.4808570368246055 Q 3.9931301751261965 3.491165736985889 3.9906560870874883 3.5002373931278177 L 3.9906560870874883 3.833414582340486 L 3.9395249342875243 3.833414582340486 M 4.348157781844784 3.8391874544308044 Q 4.310221765251263 3.8391874544308044 4.2850685368577315 3.8288787542695215 Q 4.259915308464201 3.818570054108238 4.247957216277113 3.7921797816953537 Q 4.235999124090024 3.765789509282469 4.235999124090024 3.7196065325599212 L 4.235999124090024 3.5291017535794102 Q 4.235999124090024 3.46972364065042 4.261977048496457 3.444158064250438 Q 4.287954972902891 3.418592487850456 4.348157781844784 3.418592487850456 Q 4.408360590786677 3.418592487850456 4.434338515193111 3.4433333682375356 Q 4.460316439599543 3.4680742486246148 4.460316439599543 3.5291017535794102 L 4.460316439599543 3.7196065325599212 Q 4.460316439599543 3.765789509282469 4.448770695418907 3.7917674336889022 Q 4.43722495123827 3.8177453580953356 4.41248407085119 3.82846640626307 Q 4.387743190464111 3.8391874544308044 4.348157781844784 3.8391874544308044 M 4.348157781844784 3.807024309927601 Q 4.38114562236089 3.807024309927601 4.395165454580234 3.7905303896695486 Q 4.4091852867995796 3.7740364694114956 4.4091852867995796 3.7303275807276552 L 4.4091852867995796 3.5266276655407025 Q 4.4091852867995796 3.486217560908473 4.395990150593137 3.468486596631066 Q 4.382795014386695 3.4507556323536592 4.348157781844784 3.4507556323536592 Q 4.315994637341581 3.4507556323536592 4.301562457115785 3.4676619006181633 Q 4.287130276889989 3.4845681688826673 4.287130276889989 3.5266276655407025 L 4.287130276889989 3.7303275807276552 Q 4.287130276889989 3.773211773398593 4.301562457115785 3.790118041663097 Q 4.315994637341581 3.807024309927601 4.348157781844784 3.807024309927601" fill="#000000" fill-rule="nonzero"></path></g></g><defs><clipPath id="SvgjsClipPath62728"><path d=" M -3.3221245256803327 -0.06469710151058883 h 2.8921245256803325 v 3.9628087853616636 h -2.8921245256803325 Z"></path></clipPath><clipPath id="ae0745917-11b5-4933-b661-a4c78605805bde7b6ccf-3bf8-4900-a4b1-d03cf5810583"><path d=" M -3.3221245256803322 3.8981116838510745 L -0.43005203807791803 3.8981116838510745 L -0.43005203807791803 -0.06468719448862467 L -3.3221245256803322 -0.06468719448862467 Z"></path></clipPath></defs></svg>